<?xml version="1.0" standalone="no"?><!DOCTYPE svg PUBLIC "-//W3C//DTD SVG 1.1//EN" "http://www.w3.org/Graphics/SVG/1.1/DTD/svg11.dtd">
<svg x="0.0000mm" y="0.0000mm" width="228.6000mm" height="112.9770mm" viewBox="0.0000 0.0000 228.6000 112.9770" version="1.1" xmlns="http://www.w3.org/2000/svg" shape-rendering="crispEdges">
<title>TBarCode - 11.14.0.16673</title>
<desc>BarCode licensed to MEM:TEC-IT Datenverarbeitung GmbH Internal License</desc>
<g fill="rgb(0%,0%,0%)">
</g>
<g fill="rgb(100%,100%,100%)">
<rect x="0.0000" y="0.0000" width="228.6000" height="112.9770" />
</g>
<g fill="rgb(0%,0%,0%)">
</g>
<g fill="rgb(0%,0%,0%)">
<rect x="0.0000" y="0.0000" width="2.8222" height="81.6190" />
<rect x="5.6444" y="0.0000" width="2.8222" height="81.6190" />
<rect x="11.2889" y="0.0000" width="2.8222" height="81.6190" />
<rect x="22.5778" y="0.0000" width="8.4667" height="81.6190" />
<rect x="39.5111" y="0.0000" width="2.8222" height="81.6190" />
<rect x="45.1556" y="0.0000" width="2.8222" height="81.6190" />
<rect x="50.8000" y="0.0000" width="8.4667" height="81.6190" />
<rect x="62.0889" y="0.0000" width="2.8222" height="81.6190" />
<rect x="73.3778" y="0.0000" width="2.8222" height="81.6190" />
<rect x="84.6667" y="0.0000" width="8.4667" height="81.6190" />
<rect x="95.9556" y="0.0000" width="8.4667" height="81.6190" />
<rect x="107.2444" y="0.0000" width="2.8222" height="81.6190" />
<rect x="112.8889" y="0.0000" width="2.8222" height="81.6190" />
<rect x="118.5333" y="0.0000" width="8.4667" height="81.6190" />
<rect x="129.8222" y="0.0000" width="2.8222" height="81.6190" />
<rect x="141.1111" y="0.0000" width="2.8222" height="81.6190" />
<rect x="152.4000" y="0.0000" width="8.4667" height="81.6190" />
<rect x="163.6889" y="0.0000" width="2.8222" height="81.6190" />
<rect x="174.9778" y="0.0000" width="2.8222" height="81.6190" />
<rect x="180.6222" y="0.0000" width="8.4667" height="81.6190" />
<rect x="191.9111" y="0.0000" width="8.4667" height="81.6190" />
<rect x="203.2000" y="0.0000" width="2.8222" height="81.6190" />
<rect x="214.4889" y="0.0000" width="8.4667" height="81.6190" />
<rect x="225.7778" y="0.0000" width="2.8222" height="81.6190" />
</g>
<g fill="rgb(0%,0%,0%)">
<text x="114.3000" y="107.0974" transform="rotate(360 114.3000,107.0974)" text-anchor="middle" font-family="Arial" font-size="28.2222" >23032001</text>
</g>
</svg>
