<?xml version="1.0" standalone="no"?><!DOCTYPE svg PUBLIC "-//W3C//DTD SVG 1.1//EN" "http://www.w3.org/Graphics/SVG/1.1/DTD/svg11.dtd">
<svg x="0.0000mm" y="0.0000mm" width="107.4210mm" height="107.4210mm" viewBox="0.0000 0.0000 107.4210 107.4210" version="1.1" xmlns="http://www.w3.org/2000/svg" shape-rendering="crispEdges">
<title>TBarCode - 11.14.0.16673</title>
<desc>BarCode licensed to MEM:TEC-IT Datenverarbeitung GmbH Internal License</desc>
<g fill="rgb(0%,0%,0%)">
</g>
<g fill="rgb(100%,100%,100%)">
<rect x="0.0000" y="0.0000" width="107.4210" height="107.4210" />
</g>
<g fill="rgb(0%,0%,0%)">
</g>
<g fill="rgb(0%,0%,0%)">
<rect x="0.0000" y="0.0000" width="5.6537" height="5.6537" />
<rect x="11.3075" y="0.0000" width="5.6537" height="5.6537" />
<rect x="16.9612" y="0.0000" width="5.6537" height="5.6537" />
<rect x="33.9224" y="0.0000" width="5.6537" height="5.6537" />
<rect x="39.5762" y="0.0000" width="5.6537" height="5.6537" />
<rect x="45.2299" y="0.0000" width="5.6537" height="5.6537" />
<rect x="90.4598" y="0.0000" width="5.6537" height="5.6537" />
<rect x="96.1135" y="0.0000" width="5.6537" height="5.6537" />
</g>
<g fill="rgb(0%,0%,0%)">
<rect x="0.0000" y="5.6537" width="5.6537" height="5.6537" />
<rect x="11.3075" y="5.6537" width="5.6537" height="5.6537" />
<rect x="16.9612" y="5.6537" width="5.6537" height="5.6537" />
<rect x="22.6149" y="5.6537" width="5.6537" height="5.6537" />
<rect x="33.9224" y="5.6537" width="5.6537" height="5.6537" />
<rect x="56.5374" y="5.6537" width="5.6537" height="5.6537" />
<rect x="62.1911" y="5.6537" width="5.6537" height="5.6537" />
<rect x="73.4986" y="5.6537" width="5.6537" height="5.6537" />
<rect x="79.1523" y="5.6537" width="5.6537" height="5.6537" />
<rect x="90.4598" y="5.6537" width="5.6537" height="5.6537" />
<rect x="96.1135" y="5.6537" width="5.6537" height="5.6537" />
<rect x="101.7673" y="5.6537" width="5.6537" height="5.6537" />
</g>
<g fill="rgb(0%,0%,0%)">
<rect x="0.0000" y="11.3075" width="5.6537" height="5.6537" />
<rect x="5.6537" y="11.3075" width="5.6537" height="5.6537" />
<rect x="33.9224" y="11.3075" width="5.6537" height="5.6537" />
<rect x="39.5762" y="11.3075" width="5.6537" height="5.6537" />
<rect x="56.5374" y="11.3075" width="5.6537" height="5.6537" />
<rect x="62.1911" y="11.3075" width="5.6537" height="5.6537" />
<rect x="73.4986" y="11.3075" width="5.6537" height="5.6537" />
<rect x="90.4598" y="11.3075" width="5.6537" height="5.6537" />
</g>
<g fill="rgb(0%,0%,0%)">
<rect x="0.0000" y="16.9612" width="5.6537" height="5.6537" />
<rect x="5.6537" y="16.9612" width="5.6537" height="5.6537" />
<rect x="16.9612" y="16.9612" width="5.6537" height="5.6537" />
<rect x="22.6149" y="16.9612" width="5.6537" height="5.6537" />
<rect x="28.2687" y="16.9612" width="5.6537" height="5.6537" />
<rect x="33.9224" y="16.9612" width="5.6537" height="5.6537" />
<rect x="39.5762" y="16.9612" width="5.6537" height="5.6537" />
<rect x="45.2299" y="16.9612" width="5.6537" height="5.6537" />
<rect x="50.8836" y="16.9612" width="5.6537" height="5.6537" />
<rect x="67.8448" y="16.9612" width="5.6537" height="5.6537" />
<rect x="73.4986" y="16.9612" width="5.6537" height="5.6537" />
<rect x="84.8061" y="16.9612" width="5.6537" height="5.6537" />
<rect x="96.1135" y="16.9612" width="5.6537" height="5.6537" />
<rect x="101.7673" y="16.9612" width="5.6537" height="5.6537" />
</g>
<g fill="rgb(0%,0%,0%)">
<rect x="11.3075" y="22.6149" width="5.6537" height="5.6537" />
<rect x="22.6149" y="22.6149" width="5.6537" height="5.6537" />
<rect x="28.2687" y="22.6149" width="5.6537" height="5.6537" />
<rect x="39.5762" y="22.6149" width="5.6537" height="5.6537" />
<rect x="50.8836" y="22.6149" width="5.6537" height="5.6537" />
<rect x="79.1523" y="22.6149" width="5.6537" height="5.6537" />
<rect x="96.1135" y="22.6149" width="5.6537" height="5.6537" />
<rect x="101.7673" y="22.6149" width="5.6537" height="5.6537" />
</g>
<g fill="rgb(0%,0%,0%)">
<rect x="0.0000" y="28.2687" width="5.6537" height="5.6537" />
<rect x="16.9612" y="28.2687" width="5.6537" height="5.6537" />
<rect x="22.6149" y="28.2687" width="5.6537" height="5.6537" />
<rect x="28.2687" y="28.2687" width="5.6537" height="5.6537" />
<rect x="33.9224" y="28.2687" width="5.6537" height="5.6537" />
<rect x="39.5762" y="28.2687" width="5.6537" height="5.6537" />
<rect x="45.2299" y="28.2687" width="5.6537" height="5.6537" />
<rect x="50.8836" y="28.2687" width="5.6537" height="5.6537" />
<rect x="56.5374" y="28.2687" width="5.6537" height="5.6537" />
<rect x="62.1911" y="28.2687" width="5.6537" height="5.6537" />
<rect x="67.8448" y="28.2687" width="5.6537" height="5.6537" />
<rect x="73.4986" y="28.2687" width="5.6537" height="5.6537" />
<rect x="79.1523" y="28.2687" width="5.6537" height="5.6537" />
<rect x="90.4598" y="28.2687" width="5.6537" height="5.6537" />
<rect x="96.1135" y="28.2687" width="5.6537" height="5.6537" />
</g>
<g fill="rgb(0%,0%,0%)">
<rect x="0.0000" y="33.9224" width="5.6537" height="5.6537" />
<rect x="16.9612" y="33.9224" width="5.6537" height="5.6537" />
<rect x="28.2687" y="33.9224" width="5.6537" height="5.6537" />
<rect x="73.4986" y="33.9224" width="5.6537" height="5.6537" />
<rect x="79.1523" y="33.9224" width="5.6537" height="5.6537" />
<rect x="84.8061" y="33.9224" width="5.6537" height="5.6537" />
<rect x="90.4598" y="33.9224" width="5.6537" height="5.6537" />
<rect x="96.1135" y="33.9224" width="5.6537" height="5.6537" />
</g>
<g fill="rgb(0%,0%,0%)">
<rect x="5.6537" y="39.5762" width="5.6537" height="5.6537" />
<rect x="11.3075" y="39.5762" width="5.6537" height="5.6537" />
<rect x="28.2687" y="39.5762" width="5.6537" height="5.6537" />
<rect x="39.5762" y="39.5762" width="5.6537" height="5.6537" />
<rect x="45.2299" y="39.5762" width="5.6537" height="5.6537" />
<rect x="50.8836" y="39.5762" width="5.6537" height="5.6537" />
<rect x="56.5374" y="39.5762" width="5.6537" height="5.6537" />
<rect x="62.1911" y="39.5762" width="5.6537" height="5.6537" />
<rect x="73.4986" y="39.5762" width="5.6537" height="5.6537" />
<rect x="96.1135" y="39.5762" width="5.6537" height="5.6537" />
</g>
<g fill="rgb(0%,0%,0%)">
<rect x="5.6537" y="45.2299" width="5.6537" height="5.6537" />
<rect x="11.3075" y="45.2299" width="5.6537" height="5.6537" />
<rect x="28.2687" y="45.2299" width="5.6537" height="5.6537" />
<rect x="39.5762" y="45.2299" width="5.6537" height="5.6537" />
<rect x="62.1911" y="45.2299" width="5.6537" height="5.6537" />
<rect x="73.4986" y="45.2299" width="5.6537" height="5.6537" />
<rect x="79.1523" y="45.2299" width="5.6537" height="5.6537" />
<rect x="90.4598" y="45.2299" width="5.6537" height="5.6537" />
<rect x="101.7673" y="45.2299" width="5.6537" height="5.6537" />
</g>
<g fill="rgb(0%,0%,0%)">
<rect x="0.0000" y="50.8836" width="5.6537" height="5.6537" />
<rect x="5.6537" y="50.8836" width="5.6537" height="5.6537" />
<rect x="28.2687" y="50.8836" width="5.6537" height="5.6537" />
<rect x="39.5762" y="50.8836" width="5.6537" height="5.6537" />
<rect x="50.8836" y="50.8836" width="5.6537" height="5.6537" />
<rect x="62.1911" y="50.8836" width="5.6537" height="5.6537" />
<rect x="73.4986" y="50.8836" width="5.6537" height="5.6537" />
<rect x="79.1523" y="50.8836" width="5.6537" height="5.6537" />
<rect x="90.4598" y="50.8836" width="5.6537" height="5.6537" />
<rect x="101.7673" y="50.8836" width="5.6537" height="5.6537" />
</g>
<g fill="rgb(0%,0%,0%)">
<rect x="22.6149" y="56.5374" width="5.6537" height="5.6537" />
<rect x="28.2687" y="56.5374" width="5.6537" height="5.6537" />
<rect x="39.5762" y="56.5374" width="5.6537" height="5.6537" />
<rect x="62.1911" y="56.5374" width="5.6537" height="5.6537" />
<rect x="73.4986" y="56.5374" width="5.6537" height="5.6537" />
<rect x="79.1523" y="56.5374" width="5.6537" height="5.6537" />
</g>
<g fill="rgb(0%,0%,0%)">
<rect x="0.0000" y="62.1911" width="5.6537" height="5.6537" />
<rect x="5.6537" y="62.1911" width="5.6537" height="5.6537" />
<rect x="16.9612" y="62.1911" width="5.6537" height="5.6537" />
<rect x="28.2687" y="62.1911" width="5.6537" height="5.6537" />
<rect x="39.5762" y="62.1911" width="5.6537" height="5.6537" />
<rect x="45.2299" y="62.1911" width="5.6537" height="5.6537" />
<rect x="50.8836" y="62.1911" width="5.6537" height="5.6537" />
<rect x="56.5374" y="62.1911" width="5.6537" height="5.6537" />
<rect x="62.1911" y="62.1911" width="5.6537" height="5.6537" />
<rect x="73.4986" y="62.1911" width="5.6537" height="5.6537" />
<rect x="79.1523" y="62.1911" width="5.6537" height="5.6537" />
<rect x="84.8061" y="62.1911" width="5.6537" height="5.6537" />
<rect x="90.4598" y="62.1911" width="5.6537" height="5.6537" />
<rect x="96.1135" y="62.1911" width="5.6537" height="5.6537" />
</g>
<g fill="rgb(0%,0%,0%)">
<rect x="5.6537" y="67.8448" width="5.6537" height="5.6537" />
<rect x="11.3075" y="67.8448" width="5.6537" height="5.6537" />
<rect x="16.9612" y="67.8448" width="5.6537" height="5.6537" />
<rect x="22.6149" y="67.8448" width="5.6537" height="5.6537" />
<rect x="28.2687" y="67.8448" width="5.6537" height="5.6537" />
<rect x="73.4986" y="67.8448" width="5.6537" height="5.6537" />
<rect x="79.1523" y="67.8448" width="5.6537" height="5.6537" />
<rect x="90.4598" y="67.8448" width="5.6537" height="5.6537" />
</g>
<g fill="rgb(0%,0%,0%)">
<rect x="5.6537" y="73.4986" width="5.6537" height="5.6537" />
<rect x="16.9612" y="73.4986" width="5.6537" height="5.6537" />
<rect x="28.2687" y="73.4986" width="5.6537" height="5.6537" />
<rect x="33.9224" y="73.4986" width="5.6537" height="5.6537" />
<rect x="39.5762" y="73.4986" width="5.6537" height="5.6537" />
<rect x="45.2299" y="73.4986" width="5.6537" height="5.6537" />
<rect x="50.8836" y="73.4986" width="5.6537" height="5.6537" />
<rect x="56.5374" y="73.4986" width="5.6537" height="5.6537" />
<rect x="62.1911" y="73.4986" width="5.6537" height="5.6537" />
<rect x="67.8448" y="73.4986" width="5.6537" height="5.6537" />
<rect x="73.4986" y="73.4986" width="5.6537" height="5.6537" />
<rect x="79.1523" y="73.4986" width="5.6537" height="5.6537" />
<rect x="90.4598" y="73.4986" width="5.6537" height="5.6537" />
<rect x="101.7673" y="73.4986" width="5.6537" height="5.6537" />
</g>
<g fill="rgb(0%,0%,0%)">
<rect x="5.6537" y="79.1523" width="5.6537" height="5.6537" />
<rect x="11.3075" y="79.1523" width="5.6537" height="5.6537" />
<rect x="45.2299" y="79.1523" width="5.6537" height="5.6537" />
<rect x="56.5374" y="79.1523" width="5.6537" height="5.6537" />
<rect x="62.1911" y="79.1523" width="5.6537" height="5.6537" />
<rect x="90.4598" y="79.1523" width="5.6537" height="5.6537" />
</g>
<g fill="rgb(0%,0%,0%)">
<rect x="5.6537" y="84.8061" width="5.6537" height="5.6537" />
<rect x="28.2687" y="84.8061" width="5.6537" height="5.6537" />
<rect x="56.5374" y="84.8061" width="5.6537" height="5.6537" />
<rect x="73.4986" y="84.8061" width="5.6537" height="5.6537" />
<rect x="90.4598" y="84.8061" width="5.6537" height="5.6537" />
<rect x="96.1135" y="84.8061" width="5.6537" height="5.6537" />
</g>
<g fill="rgb(0%,0%,0%)">
<rect x="0.0000" y="90.4598" width="5.6537" height="5.6537" />
<rect x="16.9612" y="90.4598" width="5.6537" height="5.6537" />
<rect x="22.6149" y="90.4598" width="5.6537" height="5.6537" />
<rect x="28.2687" y="90.4598" width="5.6537" height="5.6537" />
<rect x="50.8836" y="90.4598" width="5.6537" height="5.6537" />
<rect x="62.1911" y="90.4598" width="5.6537" height="5.6537" />
<rect x="67.8448" y="90.4598" width="5.6537" height="5.6537" />
<rect x="73.4986" y="90.4598" width="5.6537" height="5.6537" />
<rect x="79.1523" y="90.4598" width="5.6537" height="5.6537" />
<rect x="96.1135" y="90.4598" width="5.6537" height="5.6537" />
<rect x="101.7673" y="90.4598" width="5.6537" height="5.6537" />
</g>
<g fill="rgb(0%,0%,0%)">
<rect x="0.0000" y="96.1135" width="5.6537" height="5.6537" />
<rect x="22.6149" y="96.1135" width="5.6537" height="5.6537" />
<rect x="39.5762" y="96.1135" width="5.6537" height="5.6537" />
<rect x="45.2299" y="96.1135" width="5.6537" height="5.6537" />
<rect x="73.4986" y="96.1135" width="5.6537" height="5.6537" />
<rect x="84.8061" y="96.1135" width="5.6537" height="5.6537" />
<rect x="90.4598" y="96.1135" width="5.6537" height="5.6537" />
<rect x="96.1135" y="96.1135" width="5.6537" height="5.6537" />
<rect x="101.7673" y="96.1135" width="5.6537" height="5.6537" />
</g>
<g fill="rgb(0%,0%,0%)">
<rect x="16.9612" y="101.7673" width="5.6537" height="5.6537" />
<rect x="22.6149" y="101.7673" width="5.6537" height="5.6537" />
<rect x="28.2687" y="101.7673" width="5.6537" height="5.6537" />
<rect x="45.2299" y="101.7673" width="5.6537" height="5.6537" />
<rect x="50.8836" y="101.7673" width="5.6537" height="5.6537" />
<rect x="62.1911" y="101.7673" width="5.6537" height="5.6537" />
<rect x="67.8448" y="101.7673" width="5.6537" height="5.6537" />
<rect x="73.4986" y="101.7673" width="5.6537" height="5.6537" />
<rect x="79.1523" y="101.7673" width="5.6537" height="5.6537" />
<rect x="101.7673" y="101.7673" width="5.6537" height="5.6537" />
</g>
</svg>
