<?xml version="1.0" standalone="no"?><!DOCTYPE svg PUBLIC "-//W3C//DTD SVG 1.1//EN" "http://www.w3.org/Graphics/SVG/1.1/DTD/svg11.dtd">
<svg x="0.0000mm" y="0.0000mm" width="448.7330mm" height="141.2880mm" viewBox="0.0000 0.0000 448.7330 141.2880" version="1.1" xmlns="http://www.w3.org/2000/svg" shape-rendering="crispEdges">
<title>TBarCode - 11.14.0.16673</title>
<desc>BarCode licensed to MEM:TEC-IT Datenverarbeitung GmbH Internal License</desc>
<g fill="rgb(0%,0%,0%)">
</g>
<g fill="rgb(100%,100%,100%)">
<rect x="0.0000" y="0.0000" width="448.7330" height="141.2880" />
</g>
<g fill="rgb(0%,0%,0%)">
</g>
<g fill="rgb(0%,0%,0%)">
<rect x="0.0000" y="0.0000" width="2.8222" height="108.3621" />
<rect x="11.2889" y="0.0000" width="2.8222" height="108.3621" />
<rect x="16.9333" y="0.0000" width="8.4667" height="108.3621" />
<rect x="28.2222" y="0.0000" width="8.4667" height="108.3621" />
<rect x="39.5111" y="0.0000" width="2.8222" height="108.3621" />
<rect x="45.1555" y="0.0000" width="8.4667" height="108.3621" />
<rect x="56.4444" y="0.0000" width="2.8222" height="108.3621" />
<rect x="62.0888" y="0.0000" width="2.8222" height="108.3621" />
<rect x="73.3777" y="0.0000" width="2.8222" height="108.3621" />
<rect x="79.0222" y="0.0000" width="8.4667" height="108.3621" />
<rect x="90.3110" y="0.0000" width="2.8222" height="108.3621" />
<rect x="95.9555" y="0.0000" width="8.4667" height="108.3621" />
<rect x="107.2444" y="0.0000" width="2.8222" height="108.3621" />
<rect x="118.5332" y="0.0000" width="2.8222" height="108.3621" />
<rect x="124.1777" y="0.0000" width="8.4667" height="108.3621" />
<rect x="135.4666" y="0.0000" width="8.4667" height="108.3621" />
<rect x="146.7554" y="0.0000" width="8.4667" height="108.3621" />
<rect x="158.0443" y="0.0000" width="2.8222" height="108.3621" />
<rect x="169.3332" y="0.0000" width="2.8222" height="108.3621" />
<rect x="174.9776" y="0.0000" width="2.8222" height="108.3621" />
<rect x="180.6221" y="0.0000" width="2.8222" height="108.3621" />
<rect x="191.9110" y="0.0000" width="2.8222" height="108.3621" />
<rect x="197.5554" y="0.0000" width="2.8222" height="108.3621" />
<rect x="203.1998" y="0.0000" width="8.4667" height="108.3621" />
<rect x="214.4887" y="0.0000" width="8.4667" height="108.3621" />
<rect x="225.7776" y="0.0000" width="8.4667" height="108.3621" />
<rect x="237.0665" y="0.0000" width="2.8222" height="108.3621" />
<rect x="248.3554" y="0.0000" width="2.8222" height="108.3621" />
<rect x="253.9998" y="0.0000" width="2.8222" height="108.3621" />
<rect x="259.6443" y="0.0000" width="8.4667" height="108.3621" />
<rect x="270.9331" y="0.0000" width="2.8222" height="108.3621" />
<rect x="276.5776" y="0.0000" width="8.4667" height="108.3621" />
<rect x="293.5109" y="0.0000" width="2.8222" height="108.3621" />
<rect x="299.1553" y="0.0000" width="2.8222" height="108.3621" />
<rect x="304.7998" y="0.0000" width="8.4667" height="108.3621" />
<rect x="316.0887" y="0.0000" width="8.4667" height="108.3621" />
<rect x="327.3775" y="0.0000" width="8.4667" height="108.3621" />
<rect x="344.3109" y="0.0000" width="2.8222" height="108.3621" />
<rect x="349.9553" y="0.0000" width="2.8222" height="108.3621" />
<rect x="355.5997" y="0.0000" width="2.8222" height="108.3621" />
<rect x="361.2442" y="0.0000" width="2.8222" height="108.3621" />
<rect x="366.8886" y="0.0000" width="2.8222" height="108.3621" />
<rect x="378.1775" y="0.0000" width="8.4667" height="108.3621" />
<rect x="389.4664" y="0.0000" width="2.8222" height="108.3621" />
<rect x="395.1108" y="0.0000" width="8.4667" height="108.3621" />
<rect x="406.3997" y="0.0000" width="2.8222" height="108.3621" />
<rect x="417.6886" y="0.0000" width="2.8222" height="108.3621" />
<rect x="423.3330" y="0.0000" width="8.4667" height="108.3621" />
<rect x="434.6219" y="0.0000" width="8.4667" height="108.3621" />
<rect x="445.9108" y="0.0000" width="2.8222" height="108.3621" />
</g>
<g fill="rgb(0%,0%,0%)">
<text x="224.3665" y="135.1144" transform="rotate(360 224.3665,135.1144)" text-anchor="middle" font-family="Arial" font-size="29.6333" >ABC-1234</text>
</g>
</svg>
