<?xml version="1.0" standalone="no"?><!DOCTYPE svg PUBLIC "-//W3C//DTD SVG 1.1//EN" "http://www.w3.org/Graphics/SVG/1.1/DTD/svg11.dtd">
<svg x="0.0000mm" y="0.0000mm" width="440.2670mm" height="141.2880mm" viewBox="0.0000 0.0000 440.2670 141.2880" version="1.1" xmlns="http://www.w3.org/2000/svg" shape-rendering="crispEdges">
<title>TBarCode - 11.14.0.16673</title>
<desc>BarCode licensed to MEM:TEC-IT Datenverarbeitung GmbH Internal License</desc>
<g fill="rgb(0%,0%,0%)">
</g>
<g fill="rgb(100%,100%,100%)">
<rect x="0.0000" y="0.0000" width="440.2670" height="141.2880" />
</g>
<g fill="rgb(0%,0%,0%)">
</g>
<g fill="rgb(0%,0%,0%)">
<rect x="0.0000" y="0.0000" width="5.6444" height="108.3621" />
<rect x="8.4667" y="0.0000" width="2.8222" height="108.3621" />
<rect x="16.9333" y="0.0000" width="2.8222" height="108.3621" />
<rect x="31.0445" y="0.0000" width="2.8222" height="108.3621" />
<rect x="36.6889" y="0.0000" width="2.8222" height="108.3621" />
<rect x="47.9778" y="0.0000" width="5.6444" height="108.3621" />
<rect x="62.0889" y="0.0000" width="2.8222" height="108.3621" />
<rect x="73.3778" y="0.0000" width="2.8222" height="108.3621" />
<rect x="79.0223" y="0.0000" width="5.6444" height="108.3621" />
<rect x="93.1334" y="0.0000" width="2.8222" height="108.3621" />
<rect x="104.4223" y="0.0000" width="2.8222" height="108.3621" />
<rect x="115.7112" y="0.0000" width="5.6444" height="108.3621" />
<rect x="124.1779" y="0.0000" width="2.8222" height="108.3621" />
<rect x="132.6445" y="0.0000" width="5.6444" height="108.3621" />
<rect x="141.1112" y="0.0000" width="8.4667" height="108.3621" />
<rect x="155.2223" y="0.0000" width="2.8222" height="108.3621" />
<rect x="163.6890" y="0.0000" width="2.8222" height="108.3621" />
<rect x="169.3335" y="0.0000" width="5.6444" height="108.3621" />
<rect x="186.2668" y="0.0000" width="2.8222" height="108.3621" />
<rect x="194.7335" y="0.0000" width="2.8222" height="108.3621" />
<rect x="208.8446" y="0.0000" width="5.6444" height="108.3621" />
<rect x="217.3113" y="0.0000" width="2.8222" height="108.3621" />
<rect x="231.4224" y="0.0000" width="2.8222" height="108.3621" />
<rect x="237.0668" y="0.0000" width="5.6444" height="108.3621" />
<rect x="248.3557" y="0.0000" width="2.8222" height="108.3621" />
<rect x="256.8224" y="0.0000" width="5.6444" height="108.3621" />
<rect x="265.2891" y="0.0000" width="8.4667" height="108.3621" />
<rect x="279.4002" y="0.0000" width="2.8222" height="108.3621" />
<rect x="285.0447" y="0.0000" width="8.4667" height="108.3621" />
<rect x="296.3336" y="0.0000" width="11.2889" height="108.3621" />
<rect x="310.4447" y="0.0000" width="2.8222" height="108.3621" />
<rect x="316.0891" y="0.0000" width="5.6444" height="108.3621" />
<rect x="327.3780" y="0.0000" width="8.4667" height="108.3621" />
<rect x="341.4891" y="0.0000" width="2.8222" height="108.3621" />
<rect x="352.7780" y="0.0000" width="2.8222" height="108.3621" />
<rect x="358.4225" y="0.0000" width="5.6444" height="108.3621" />
<rect x="372.5336" y="0.0000" width="8.4667" height="108.3621" />
<rect x="383.8225" y="0.0000" width="2.8222" height="108.3621" />
<rect x="389.4670" y="0.0000" width="5.6444" height="108.3621" />
<rect x="403.5781" y="0.0000" width="5.6444" height="108.3621" />
<rect x="417.6892" y="0.0000" width="8.4667" height="108.3621" />
<rect x="428.9781" y="0.0000" width="2.8222" height="108.3621" />
<rect x="434.6226" y="0.0000" width="5.6444" height="108.3621" />
</g>
<g fill="rgb(0%,0%,0%)">
<text x="220.1335" y="135.1144" transform="rotate(360 220.1335,135.1144)" text-anchor="middle" font-family="Arial" font-size="29.6333" >ABC-abc-1234</text>
</g>
</svg>
