<?xml version="1.0" standalone="no"?><!DOCTYPE svg PUBLIC "-//W3C//DTD SVG 1.1//EN" "http://www.w3.org/Graphics/SVG/1.1/DTD/svg11.dtd">
<svg x="0.0000mm" y="0.0000mm" width="101.6000mm" height="101.6000mm" viewBox="0.0000 0.0000 101.6000 101.6000" version="1.1" xmlns="http://www.w3.org/2000/svg" shape-rendering="crispEdges">
<title>TBarCode - 11.14.0.16673</title>
<desc>BarCode licensed to MEM:TEC-IT Datenverarbeitung GmbH Internal License</desc>
<g fill="rgb(0%,0%,0%)">
</g>
<g fill="rgb(100%,100%,100%)">
<rect x="0.0000" y="0.0000" width="101.6000" height="101.6000" />
</g>
<g fill="rgb(0%,0%,0%)">
</g>
<g fill="rgb(0%,0%,0%)">
<rect x="0.0000" y="0.0000" width="5.6444" height="5.6444" />
<rect x="11.2889" y="0.0000" width="5.6444" height="5.6444" />
<rect x="22.5778" y="0.0000" width="5.6444" height="5.6444" />
<rect x="33.8667" y="0.0000" width="5.6444" height="5.6444" />
<rect x="45.1556" y="0.0000" width="5.6444" height="5.6444" />
<rect x="56.4444" y="0.0000" width="5.6444" height="5.6444" />
<rect x="67.7333" y="0.0000" width="5.6444" height="5.6444" />
<rect x="79.0222" y="0.0000" width="5.6444" height="5.6444" />
<rect x="90.3111" y="0.0000" width="5.6444" height="5.6444" />
</g>
<g fill="rgb(0%,0%,0%)">
<rect x="0.0000" y="5.6444" width="5.6444" height="5.6444" />
<rect x="28.2222" y="5.6444" width="5.6444" height="5.6444" />
<rect x="39.5111" y="5.6444" width="5.6444" height="5.6444" />
<rect x="45.1556" y="5.6444" width="5.6444" height="5.6444" />
<rect x="67.7333" y="5.6444" width="5.6444" height="5.6444" />
<rect x="73.3778" y="5.6444" width="5.6444" height="5.6444" />
<rect x="95.9556" y="5.6444" width="5.6444" height="5.6444" />
</g>
<g fill="rgb(0%,0%,0%)">
<rect x="0.0000" y="11.2889" width="5.6444" height="5.6444" />
<rect x="16.9333" y="11.2889" width="5.6444" height="5.6444" />
<rect x="22.5778" y="11.2889" width="5.6444" height="5.6444" />
<rect x="33.8667" y="11.2889" width="5.6444" height="5.6444" />
<rect x="45.1556" y="11.2889" width="5.6444" height="5.6444" />
<rect x="50.8000" y="11.2889" width="5.6444" height="5.6444" />
<rect x="62.0889" y="11.2889" width="5.6444" height="5.6444" />
<rect x="67.7333" y="11.2889" width="5.6444" height="5.6444" />
<rect x="84.6667" y="11.2889" width="5.6444" height="5.6444" />
<rect x="90.3111" y="11.2889" width="5.6444" height="5.6444" />
</g>
<g fill="rgb(0%,0%,0%)">
<rect x="0.0000" y="16.9333" width="5.6444" height="5.6444" />
<rect x="5.6444" y="16.9333" width="5.6444" height="5.6444" />
<rect x="11.2889" y="16.9333" width="5.6444" height="5.6444" />
<rect x="16.9333" y="16.9333" width="5.6444" height="5.6444" />
<rect x="22.5778" y="16.9333" width="5.6444" height="5.6444" />
<rect x="28.2222" y="16.9333" width="5.6444" height="5.6444" />
<rect x="50.8000" y="16.9333" width="5.6444" height="5.6444" />
<rect x="56.4444" y="16.9333" width="5.6444" height="5.6444" />
<rect x="84.6667" y="16.9333" width="5.6444" height="5.6444" />
<rect x="90.3111" y="16.9333" width="5.6444" height="5.6444" />
<rect x="95.9556" y="16.9333" width="5.6444" height="5.6444" />
</g>
<g fill="rgb(0%,0%,0%)">
<rect x="0.0000" y="22.5778" width="5.6444" height="5.6444" />
<rect x="5.6444" y="22.5778" width="5.6444" height="5.6444" />
<rect x="11.2889" y="22.5778" width="5.6444" height="5.6444" />
<rect x="28.2222" y="22.5778" width="5.6444" height="5.6444" />
<rect x="39.5111" y="22.5778" width="5.6444" height="5.6444" />
<rect x="45.1556" y="22.5778" width="5.6444" height="5.6444" />
<rect x="50.8000" y="22.5778" width="5.6444" height="5.6444" />
<rect x="56.4444" y="22.5778" width="5.6444" height="5.6444" />
<rect x="79.0222" y="22.5778" width="5.6444" height="5.6444" />
<rect x="84.6667" y="22.5778" width="5.6444" height="5.6444" />
</g>
<g fill="rgb(0%,0%,0%)">
<rect x="0.0000" y="28.2222" width="5.6444" height="5.6444" />
<rect x="5.6444" y="28.2222" width="5.6444" height="5.6444" />
<rect x="16.9333" y="28.2222" width="5.6444" height="5.6444" />
<rect x="22.5778" y="28.2222" width="5.6444" height="5.6444" />
<rect x="33.8667" y="28.2222" width="5.6444" height="5.6444" />
<rect x="73.3778" y="28.2222" width="5.6444" height="5.6444" />
<rect x="79.0222" y="28.2222" width="5.6444" height="5.6444" />
<rect x="84.6667" y="28.2222" width="5.6444" height="5.6444" />
<rect x="90.3111" y="28.2222" width="5.6444" height="5.6444" />
<rect x="95.9556" y="28.2222" width="5.6444" height="5.6444" />
</g>
<g fill="rgb(0%,0%,0%)">
<rect x="0.0000" y="33.8667" width="5.6444" height="5.6444" />
<rect x="16.9333" y="33.8667" width="5.6444" height="5.6444" />
<rect x="33.8667" y="33.8667" width="5.6444" height="5.6444" />
<rect x="56.4444" y="33.8667" width="5.6444" height="5.6444" />
<rect x="67.7333" y="33.8667" width="5.6444" height="5.6444" />
<rect x="73.3778" y="33.8667" width="5.6444" height="5.6444" />
<rect x="79.0222" y="33.8667" width="5.6444" height="5.6444" />
<rect x="90.3111" y="33.8667" width="5.6444" height="5.6444" />
</g>
<g fill="rgb(0%,0%,0%)">
<rect x="0.0000" y="39.5111" width="5.6444" height="5.6444" />
<rect x="22.5778" y="39.5111" width="5.6444" height="5.6444" />
<rect x="28.2222" y="39.5111" width="5.6444" height="5.6444" />
<rect x="33.8667" y="39.5111" width="5.6444" height="5.6444" />
<rect x="50.8000" y="39.5111" width="5.6444" height="5.6444" />
<rect x="56.4444" y="39.5111" width="5.6444" height="5.6444" />
<rect x="73.3778" y="39.5111" width="5.6444" height="5.6444" />
<rect x="79.0222" y="39.5111" width="5.6444" height="5.6444" />
<rect x="95.9556" y="39.5111" width="5.6444" height="5.6444" />
</g>
<g fill="rgb(0%,0%,0%)">
<rect x="0.0000" y="45.1556" width="5.6444" height="5.6444" />
<rect x="28.2222" y="45.1556" width="5.6444" height="5.6444" />
<rect x="33.8667" y="45.1556" width="5.6444" height="5.6444" />
<rect x="45.1556" y="45.1556" width="5.6444" height="5.6444" />
<rect x="62.0889" y="45.1556" width="5.6444" height="5.6444" />
<rect x="73.3778" y="45.1556" width="5.6444" height="5.6444" />
<rect x="84.6667" y="45.1556" width="5.6444" height="5.6444" />
<rect x="90.3111" y="45.1556" width="5.6444" height="5.6444" />
</g>
<g fill="rgb(0%,0%,0%)">
<rect x="0.0000" y="50.8000" width="5.6444" height="5.6444" />
<rect x="22.5778" y="50.8000" width="5.6444" height="5.6444" />
<rect x="39.5111" y="50.8000" width="5.6444" height="5.6444" />
<rect x="50.8000" y="50.8000" width="5.6444" height="5.6444" />
<rect x="56.4444" y="50.8000" width="5.6444" height="5.6444" />
<rect x="62.0889" y="50.8000" width="5.6444" height="5.6444" />
<rect x="67.7333" y="50.8000" width="5.6444" height="5.6444" />
<rect x="84.6667" y="50.8000" width="5.6444" height="5.6444" />
<rect x="90.3111" y="50.8000" width="5.6444" height="5.6444" />
<rect x="95.9556" y="50.8000" width="5.6444" height="5.6444" />
</g>
<g fill="rgb(0%,0%,0%)">
<rect x="0.0000" y="56.4444" width="5.6444" height="5.6444" />
<rect x="5.6444" y="56.4444" width="5.6444" height="5.6444" />
<rect x="22.5778" y="56.4444" width="5.6444" height="5.6444" />
<rect x="28.2222" y="56.4444" width="5.6444" height="5.6444" />
<rect x="45.1556" y="56.4444" width="5.6444" height="5.6444" />
<rect x="50.8000" y="56.4444" width="5.6444" height="5.6444" />
<rect x="84.6667" y="56.4444" width="5.6444" height="5.6444" />
<rect x="90.3111" y="56.4444" width="5.6444" height="5.6444" />
</g>
<g fill="rgb(0%,0%,0%)">
<rect x="0.0000" y="62.0889" width="5.6444" height="5.6444" />
<rect x="16.9333" y="62.0889" width="5.6444" height="5.6444" />
<rect x="33.8667" y="62.0889" width="5.6444" height="5.6444" />
<rect x="45.1556" y="62.0889" width="5.6444" height="5.6444" />
<rect x="50.8000" y="62.0889" width="5.6444" height="5.6444" />
<rect x="73.3778" y="62.0889" width="5.6444" height="5.6444" />
<rect x="79.0222" y="62.0889" width="5.6444" height="5.6444" />
<rect x="84.6667" y="62.0889" width="5.6444" height="5.6444" />
<rect x="90.3111" y="62.0889" width="5.6444" height="5.6444" />
<rect x="95.9556" y="62.0889" width="5.6444" height="5.6444" />
</g>
<g fill="rgb(0%,0%,0%)">
<rect x="0.0000" y="67.7333" width="5.6444" height="5.6444" />
<rect x="5.6444" y="67.7333" width="5.6444" height="5.6444" />
<rect x="11.2889" y="67.7333" width="5.6444" height="5.6444" />
<rect x="16.9333" y="67.7333" width="5.6444" height="5.6444" />
<rect x="28.2222" y="67.7333" width="5.6444" height="5.6444" />
<rect x="67.7333" y="67.7333" width="5.6444" height="5.6444" />
<rect x="84.6667" y="67.7333" width="5.6444" height="5.6444" />
<rect x="90.3111" y="67.7333" width="5.6444" height="5.6444" />
</g>
<g fill="rgb(0%,0%,0%)">
<rect x="0.0000" y="73.3778" width="5.6444" height="5.6444" />
<rect x="22.5778" y="73.3778" width="5.6444" height="5.6444" />
<rect x="28.2222" y="73.3778" width="5.6444" height="5.6444" />
<rect x="39.5111" y="73.3778" width="5.6444" height="5.6444" />
<rect x="50.8000" y="73.3778" width="5.6444" height="5.6444" />
<rect x="56.4444" y="73.3778" width="5.6444" height="5.6444" />
<rect x="62.0889" y="73.3778" width="5.6444" height="5.6444" />
<rect x="84.6667" y="73.3778" width="5.6444" height="5.6444" />
<rect x="90.3111" y="73.3778" width="5.6444" height="5.6444" />
<rect x="95.9556" y="73.3778" width="5.6444" height="5.6444" />
</g>
<g fill="rgb(0%,0%,0%)">
<rect x="0.0000" y="79.0222" width="5.6444" height="5.6444" />
<rect x="5.6444" y="79.0222" width="5.6444" height="5.6444" />
<rect x="16.9333" y="79.0222" width="5.6444" height="5.6444" />
<rect x="28.2222" y="79.0222" width="5.6444" height="5.6444" />
<rect x="33.8667" y="79.0222" width="5.6444" height="5.6444" />
<rect x="50.8000" y="79.0222" width="5.6444" height="5.6444" />
<rect x="73.3778" y="79.0222" width="5.6444" height="5.6444" />
<rect x="79.0222" y="79.0222" width="5.6444" height="5.6444" />
<rect x="84.6667" y="79.0222" width="5.6444" height="5.6444" />
</g>
<g fill="rgb(0%,0%,0%)">
<rect x="0.0000" y="84.6667" width="5.6444" height="5.6444" />
<rect x="16.9333" y="84.6667" width="5.6444" height="5.6444" />
<rect x="22.5778" y="84.6667" width="5.6444" height="5.6444" />
<rect x="39.5111" y="84.6667" width="5.6444" height="5.6444" />
<rect x="62.0889" y="84.6667" width="5.6444" height="5.6444" />
<rect x="67.7333" y="84.6667" width="5.6444" height="5.6444" />
<rect x="73.3778" y="84.6667" width="5.6444" height="5.6444" />
<rect x="84.6667" y="84.6667" width="5.6444" height="5.6444" />
<rect x="95.9556" y="84.6667" width="5.6444" height="5.6444" />
</g>
<g fill="rgb(0%,0%,0%)">
<rect x="0.0000" y="90.3111" width="5.6444" height="5.6444" />
<rect x="5.6444" y="90.3111" width="5.6444" height="5.6444" />
<rect x="33.8667" y="90.3111" width="5.6444" height="5.6444" />
<rect x="39.5111" y="90.3111" width="5.6444" height="5.6444" />
<rect x="45.1556" y="90.3111" width="5.6444" height="5.6444" />
<rect x="73.3778" y="90.3111" width="5.6444" height="5.6444" />
<rect x="84.6667" y="90.3111" width="5.6444" height="5.6444" />
<rect x="90.3111" y="90.3111" width="5.6444" height="5.6444" />
</g>
<g fill="rgb(0%,0%,0%)">
<rect x="0.0000" y="95.9556" width="5.6444" height="5.6444" />
<rect x="5.6444" y="95.9556" width="5.6444" height="5.6444" />
<rect x="11.2889" y="95.9556" width="5.6444" height="5.6444" />
<rect x="16.9333" y="95.9556" width="5.6444" height="5.6444" />
<rect x="22.5778" y="95.9556" width="5.6444" height="5.6444" />
<rect x="28.2222" y="95.9556" width="5.6444" height="5.6444" />
<rect x="33.8667" y="95.9556" width="5.6444" height="5.6444" />
<rect x="39.5111" y="95.9556" width="5.6444" height="5.6444" />
<rect x="45.1556" y="95.9556" width="5.6444" height="5.6444" />
<rect x="50.8000" y="95.9556" width="5.6444" height="5.6444" />
<rect x="56.4444" y="95.9556" width="5.6444" height="5.6444" />
<rect x="62.0889" y="95.9556" width="5.6444" height="5.6444" />
<rect x="67.7333" y="95.9556" width="5.6444" height="5.6444" />
<rect x="73.3778" y="95.9556" width="5.6444" height="5.6444" />
<rect x="79.0222" y="95.9556" width="5.6444" height="5.6444" />
<rect x="84.6667" y="95.9556" width="5.6444" height="5.6444" />
<rect x="90.3111" y="95.9556" width="5.6444" height="5.6444" />
<rect x="95.9556" y="95.9556" width="5.6444" height="5.6444" />
</g>
</svg>
