<?xml version="1.0" standalone="no"?><!DOCTYPE svg PUBLIC "-//W3C//DTD SVG 1.1//EN" "http://www.w3.org/Graphics/SVG/1.1/DTD/svg11.dtd">
<svg x="0.0000mm" y="0.0000mm" width="319.0870mm" height="141.2880mm" viewBox="0.0000 0.0000 319.0870 141.2880" version="1.1" xmlns="http://www.w3.org/2000/svg" shape-rendering="crispEdges">
<title>TBarCode - 11.14.0.16673</title>
<desc>BarCode licensed to MEM:TEC-IT Datenverarbeitung GmbH Internal License</desc>
<g fill="rgb(0%,0%,0%)">
</g>
<g fill="rgb(100%,100%,100%)">
<rect x="0.0000" y="0.0000" width="319.0870" height="141.2880" />
</g>
<g fill="rgb(0%,0%,0%)">
</g>
<g fill="rgb(0%,0%,0%)">
<rect x="31.0616" y="0.0000" width="2.8238" height="123.3284" />
<rect x="36.7091" y="0.0000" width="2.8238" height="123.3284" />
<rect x="42.1395" y="0.0000" width="8.6886" height="108.3621" />
<rect x="53.4346" y="0.0000" width="5.8648" height="108.3621" />
<rect x="67.9879" y="0.0000" width="2.6066" height="108.3621" />
<rect x="76.4592" y="0.0000" width="2.6066" height="108.3621" />
<rect x="81.8896" y="0.0000" width="2.8238" height="108.3621" />
<rect x="90.3609" y="0.0000" width="8.4713" height="108.3621" />
<rect x="104.6970" y="0.0000" width="2.6066" height="108.3621" />
<rect x="113.1684" y="0.0000" width="5.4303" height="108.3621" />
<rect x="121.4225" y="0.0000" width="2.8238" height="108.3621" />
<rect x="129.8938" y="0.0000" width="8.4713" height="108.3621" />
<rect x="144.2299" y="0.0000" width="5.4303" height="108.3621" />
<rect x="155.5250" y="0.0000" width="2.6066" height="108.3621" />
<rect x="160.9554" y="0.0000" width="2.8238" height="123.3284" />
<rect x="166.6029" y="0.0000" width="2.8238" height="123.3284" />
<rect x="172.2505" y="0.0000" width="2.8238" height="108.3621" />
<rect x="186.3694" y="0.0000" width="2.8238" height="108.3621" />
<rect x="192.0170" y="0.0000" width="2.6066" height="108.3621" />
<rect x="203.3121" y="0.0000" width="2.6066" height="108.3621" />
<rect x="211.7834" y="0.0000" width="8.4713" height="108.3621" />
<rect x="223.0785" y="0.0000" width="2.8238" height="108.3621" />
<rect x="231.5499" y="0.0000" width="2.8238" height="108.3621" />
<rect x="237.1974" y="0.0000" width="2.8238" height="108.3621" />
<rect x="251.3163" y="0.0000" width="5.8648" height="108.3621" />
<rect x="259.7876" y="0.0000" width="5.8648" height="108.3621" />
<rect x="271.0828" y="0.0000" width="2.8238" height="108.3621" />
<rect x="276.7303" y="0.0000" width="8.4713" height="108.3621" />
<rect x="290.8492" y="0.0000" width="2.8238" height="123.3284" />
<rect x="296.4968" y="0.0000" width="2.8238" height="123.3284" />
</g>
<g fill="rgb(0%,0%,0%)">
<text x="15.5308" y="135.1144" transform="rotate(360 15.5308,135.1144)" text-anchor="middle" font-family="Arial" font-size="29.6333" >9</text>
<text x="100.2441" y="135.1144" transform="rotate(360 100.2441,135.1144)" text-anchor="middle" font-family="Arial" font-size="29.6333" >780201</text>
<text x="230.1380" y="135.1144" transform="rotate(360 230.1380,135.1144)" text-anchor="middle" font-family="Arial" font-size="29.6333" >379624</text>
</g>
</svg>
