<?xml version="1.0" standalone="no"?><!DOCTYPE svg PUBLIC "-//W3C//DTD SVG 1.1//EN" "http://www.w3.org/Graphics/SVG/1.1/DTD/svg11.dtd">
<svg x="0.0000mm" y="0.0000mm" width="657.7540mm" height="141.2880mm" viewBox="0.0000 0.0000 657.7540 141.2880" version="1.1" xmlns="http://www.w3.org/2000/svg" shape-rendering="crispEdges">
<title>TBarCode - 11.14.0.16673</title>
<desc>BarCode licensed to MEM:TEC-IT Datenverarbeitung GmbH Internal License</desc>
<g fill="rgb(0%,0%,0%)">
</g>
<g fill="rgb(100%,100%,100%)">
<rect x="0.0000" y="0.0000" width="657.7540" height="141.2880" />
</g>
<g fill="rgb(0%,0%,0%)">
</g>
<g fill="rgb(0%,0%,0%)">
<rect x="0.0000" y="0.0000" width="5.6460" height="108.3621" />
<rect x="8.4689" y="0.0000" width="2.8230" height="108.3621" />
<rect x="16.9379" y="0.0000" width="2.8230" height="108.3621" />
<rect x="31.0528" y="0.0000" width="11.2919" height="108.3621" />
<rect x="45.1677" y="0.0000" width="2.8230" height="108.3621" />
<rect x="50.8136" y="0.0000" width="8.4689" height="108.3621" />
<rect x="62.1055" y="0.0000" width="2.8230" height="108.3621" />
<rect x="70.5745" y="0.0000" width="8.4689" height="108.3621" />
<rect x="81.8664" y="0.0000" width="5.6460" height="108.3621" />
<rect x="93.1583" y="0.0000" width="2.8230" height="108.3621" />
<rect x="101.6272" y="0.0000" width="8.4689" height="108.3621" />
<rect x="115.7421" y="0.0000" width="5.6460" height="108.3621" />
<rect x="124.2111" y="0.0000" width="5.6460" height="108.3621" />
<rect x="132.6800" y="0.0000" width="8.4689" height="108.3621" />
<rect x="149.6179" y="0.0000" width="2.8230" height="108.3621" />
<rect x="155.2638" y="0.0000" width="2.8230" height="108.3621" />
<rect x="160.9098" y="0.0000" width="11.2919" height="108.3621" />
<rect x="177.8476" y="0.0000" width="2.8230" height="108.3621" />
<rect x="186.3166" y="0.0000" width="11.2919" height="108.3621" />
<rect x="200.4315" y="0.0000" width="2.8230" height="108.3621" />
<rect x="208.9004" y="0.0000" width="2.8230" height="108.3621" />
<rect x="217.3693" y="0.0000" width="2.8230" height="108.3621" />
<rect x="223.0153" y="0.0000" width="5.6460" height="108.3621" />
<rect x="234.3072" y="0.0000" width="2.8230" height="108.3621" />
<rect x="248.4221" y="0.0000" width="2.8230" height="108.3621" />
<rect x="256.8910" y="0.0000" width="11.2919" height="108.3621" />
<rect x="271.0059" y="0.0000" width="2.8230" height="108.3621" />
<rect x="279.4749" y="0.0000" width="5.6460" height="108.3621" />
<rect x="296.4127" y="0.0000" width="2.8230" height="108.3621" />
<rect x="304.8817" y="0.0000" width="2.8230" height="108.3621" />
<rect x="310.5276" y="0.0000" width="2.8230" height="108.3621" />
<rect x="321.8196" y="0.0000" width="11.2919" height="108.3621" />
<rect x="335.9344" y="0.0000" width="2.8230" height="108.3621" />
<rect x="341.5804" y="0.0000" width="11.2919" height="108.3621" />
<rect x="355.6953" y="0.0000" width="2.8230" height="108.3621" />
<rect x="364.1642" y="0.0000" width="2.8230" height="108.3621" />
<rect x="372.6332" y="0.0000" width="5.6460" height="108.3621" />
<rect x="386.7481" y="0.0000" width="2.8230" height="108.3621" />
<rect x="398.0400" y="0.0000" width="2.8230" height="108.3621" />
<rect x="403.6859" y="0.0000" width="5.6460" height="108.3621" />
<rect x="412.1549" y="0.0000" width="8.4689" height="108.3621" />
<rect x="423.4468" y="0.0000" width="8.4689" height="108.3621" />
<rect x="434.7387" y="0.0000" width="8.4689" height="108.3621" />
<rect x="446.0306" y="0.0000" width="5.6460" height="108.3621" />
<rect x="454.4995" y="0.0000" width="8.4689" height="108.3621" />
<rect x="465.7915" y="0.0000" width="2.8230" height="108.3621" />
<rect x="474.2604" y="0.0000" width="5.6460" height="108.3621" />
<rect x="482.7293" y="0.0000" width="8.4689" height="108.3621" />
<rect x="496.8442" y="0.0000" width="8.4689" height="108.3621" />
<rect x="508.1361" y="0.0000" width="5.6460" height="108.3621" />
<rect x="516.6051" y="0.0000" width="8.4689" height="108.3621" />
<rect x="527.8970" y="0.0000" width="5.6460" height="108.3621" />
<rect x="539.1889" y="0.0000" width="2.8230" height="108.3621" />
<rect x="544.8349" y="0.0000" width="8.4689" height="108.3621" />
<rect x="558.9498" y="0.0000" width="2.8230" height="108.3621" />
<rect x="570.2417" y="0.0000" width="2.8230" height="108.3621" />
<rect x="575.8876" y="0.0000" width="5.6460" height="108.3621" />
<rect x="590.0025" y="0.0000" width="2.8230" height="108.3621" />
<rect x="595.6485" y="0.0000" width="2.8230" height="108.3621" />
<rect x="609.7634" y="0.0000" width="5.6460" height="108.3621" />
<rect x="621.0553" y="0.0000" width="5.6460" height="108.3621" />
<rect x="635.1702" y="0.0000" width="8.4689" height="108.3621" />
<rect x="646.4621" y="0.0000" width="2.8230" height="108.3621" />
<rect x="652.1080" y="0.0000" width="5.6460" height="108.3621" />
</g>
<g fill="rgb(0%,0%,0%)">
<text x="328.8770" y="135.1144" transform="rotate(360 328.8770,135.1144)" text-anchor="middle" font-family="Arial" font-size="29.6333" >(01)TsvetkovIU7-73B</text>
</g>
</svg>
