<?xml version="1.0" standalone="no"?><!DOCTYPE svg PUBLIC "-//W3C//DTD SVG 1.1//EN" "http://www.w3.org/Graphics/SVG/1.1/DTD/svg11.dtd">
<svg x="0.0000mm" y="0.0000mm" width="338.6670mm" height="88.9000mm" viewBox="0.0000 0.0000 338.6670 88.9000" version="1.1" xmlns="http://www.w3.org/2000/svg" shape-rendering="crispEdges">
<title>TBarCode - 11.14.0.16673</title>
<desc>BarCode licensed to MEM:TEC-IT Datenverarbeitung GmbH Internal License</desc>
<g fill="rgb(0%,0%,0%)">
</g>
<g fill="rgb(100%,100%,100%)">
<rect x="0.0000" y="0.0000" width="338.6670" height="88.9000" />
</g>
<g fill="rgb(0%,0%,0%)">
</g>
<g fill="rgb(0%,0%,0%)">
<rect x="0.0000" y="0.0000" width="22.5778" height="12.7000" />
<rect x="25.4000" y="0.0000" width="2.8222" height="12.7000" />
<rect x="31.0445" y="0.0000" width="2.8222" height="12.7000" />
<rect x="36.6889" y="0.0000" width="2.8222" height="12.7000" />
<rect x="47.9778" y="0.0000" width="14.1111" height="12.7000" />
<rect x="64.9112" y="0.0000" width="2.8222" height="12.7000" />
<rect x="70.5556" y="0.0000" width="2.8222" height="12.7000" />
<rect x="76.2001" y="0.0000" width="14.1111" height="12.7000" />
<rect x="95.9557" y="0.0000" width="8.4667" height="12.7000" />
<rect x="107.2446" y="0.0000" width="2.8222" height="12.7000" />
<rect x="112.8890" y="0.0000" width="5.6445" height="12.7000" />
<rect x="121.3557" y="0.0000" width="11.2889" height="12.7000" />
<rect x="143.9335" y="0.0000" width="8.4667" height="12.7000" />
<rect x="163.6891" y="0.0000" width="2.8222" height="12.7000" />
<rect x="169.3335" y="0.0000" width="2.8222" height="12.7000" />
<rect x="180.6224" y="0.0000" width="8.4667" height="12.7000" />
<rect x="191.9113" y="0.0000" width="8.4667" height="12.7000" />
<rect x="203.2002" y="0.0000" width="8.4667" height="12.7000" />
<rect x="220.1336" y="0.0000" width="5.6445" height="12.7000" />
<rect x="231.4225" y="0.0000" width="5.6445" height="12.7000" />
<rect x="239.8891" y="0.0000" width="14.1111" height="12.7000" />
<rect x="256.8225" y="0.0000" width="2.8222" height="12.7000" />
<rect x="262.4669" y="0.0000" width="2.8222" height="12.7000" />
<rect x="268.1114" y="0.0000" width="14.1111" height="12.7000" />
<rect x="287.8670" y="0.0000" width="19.7556" height="12.7000" />
<rect x="310.4448" y="0.0000" width="2.8222" height="12.7000" />
<rect x="321.7337" y="0.0000" width="2.8222" height="12.7000" />
<rect x="327.3781" y="0.0000" width="2.8222" height="12.7000" />
<rect x="335.8448" y="0.0000" width="2.8222" height="12.7000" />
</g>
<g fill="rgb(0%,0%,0%)">
<rect x="0.0000" y="12.7000" width="22.5778" height="12.7000" />
<rect x="25.4000" y="12.7000" width="2.8222" height="12.7000" />
<rect x="31.0445" y="12.7000" width="2.8222" height="12.7000" />
<rect x="36.6889" y="12.7000" width="2.8222" height="12.7000" />
<rect x="47.9778" y="12.7000" width="14.1111" height="12.7000" />
<rect x="64.9112" y="12.7000" width="2.8222" height="12.7000" />
<rect x="70.5556" y="12.7000" width="2.8222" height="12.7000" />
<rect x="81.8445" y="12.7000" width="5.6445" height="12.7000" />
<rect x="95.9557" y="12.7000" width="5.6445" height="12.7000" />
<rect x="104.4223" y="12.7000" width="2.8222" height="12.7000" />
<rect x="115.7112" y="12.7000" width="8.4667" height="12.7000" />
<rect x="127.0001" y="12.7000" width="2.8222" height="12.7000" />
<rect x="143.9335" y="12.7000" width="5.6445" height="12.7000" />
<rect x="155.2224" y="12.7000" width="2.8222" height="12.7000" />
<rect x="163.6891" y="12.7000" width="8.4667" height="12.7000" />
<rect x="183.4446" y="12.7000" width="2.8222" height="12.7000" />
<rect x="191.9113" y="12.7000" width="8.4667" height="12.7000" />
<rect x="203.2002" y="12.7000" width="8.4667" height="12.7000" />
<rect x="220.1336" y="12.7000" width="11.2889" height="12.7000" />
<rect x="234.2447" y="12.7000" width="2.8222" height="12.7000" />
<rect x="239.8891" y="12.7000" width="11.2889" height="12.7000" />
<rect x="254.0003" y="12.7000" width="2.8222" height="12.7000" />
<rect x="259.6447" y="12.7000" width="2.8222" height="12.7000" />
<rect x="268.1114" y="12.7000" width="2.8222" height="12.7000" />
<rect x="287.8670" y="12.7000" width="19.7556" height="12.7000" />
<rect x="310.4448" y="12.7000" width="2.8222" height="12.7000" />
<rect x="321.7337" y="12.7000" width="2.8222" height="12.7000" />
<rect x="327.3781" y="12.7000" width="2.8222" height="12.7000" />
<rect x="335.8448" y="12.7000" width="2.8222" height="12.7000" />
</g>
<g fill="rgb(0%,0%,0%)">
<rect x="0.0000" y="25.4000" width="22.5778" height="12.7000" />
<rect x="25.4000" y="25.4000" width="2.8222" height="12.7000" />
<rect x="31.0445" y="25.4000" width="2.8222" height="12.7000" />
<rect x="36.6889" y="25.4000" width="2.8222" height="12.7000" />
<rect x="47.9778" y="25.4000" width="2.8222" height="12.7000" />
<rect x="53.6223" y="25.4000" width="2.8222" height="12.7000" />
<rect x="59.2667" y="25.4000" width="2.8222" height="12.7000" />
<rect x="67.7334" y="25.4000" width="11.2889" height="12.7000" />
<rect x="95.9557" y="25.4000" width="2.8222" height="12.7000" />
<rect x="112.8890" y="25.4000" width="8.4667" height="12.7000" />
<rect x="124.1779" y="25.4000" width="2.8222" height="12.7000" />
<rect x="132.6446" y="25.4000" width="5.6445" height="12.7000" />
<rect x="143.9335" y="25.4000" width="2.8222" height="12.7000" />
<rect x="149.5779" y="25.4000" width="5.6445" height="12.7000" />
<rect x="163.6891" y="25.4000" width="2.8222" height="12.7000" />
<rect x="172.1557" y="25.4000" width="8.4667" height="12.7000" />
<rect x="191.9113" y="25.4000" width="8.4667" height="12.7000" />
<rect x="203.2002" y="25.4000" width="16.9333" height="12.7000" />
<rect x="225.7780" y="25.4000" width="2.8222" height="12.7000" />
<rect x="234.2447" y="25.4000" width="2.8222" height="12.7000" />
<rect x="239.8891" y="25.4000" width="5.6445" height="12.7000" />
<rect x="248.3558" y="25.4000" width="2.8222" height="12.7000" />
<rect x="254.0003" y="25.4000" width="2.8222" height="12.7000" />
<rect x="265.2892" y="25.4000" width="14.1111" height="12.7000" />
<rect x="287.8670" y="25.4000" width="19.7556" height="12.7000" />
<rect x="310.4448" y="25.4000" width="2.8222" height="12.7000" />
<rect x="321.7337" y="25.4000" width="2.8222" height="12.7000" />
<rect x="327.3781" y="25.4000" width="2.8222" height="12.7000" />
<rect x="335.8448" y="25.4000" width="2.8222" height="12.7000" />
</g>
<g fill="rgb(0%,0%,0%)">
<rect x="0.0000" y="38.1000" width="22.5778" height="12.7000" />
<rect x="25.4000" y="38.1000" width="2.8222" height="12.7000" />
<rect x="31.0445" y="38.1000" width="2.8222" height="12.7000" />
<rect x="36.6889" y="38.1000" width="2.8222" height="12.7000" />
<rect x="47.9778" y="38.1000" width="5.6444" height="12.7000" />
<rect x="56.4445" y="38.1000" width="2.8222" height="12.7000" />
<rect x="62.0890" y="38.1000" width="11.2889" height="12.7000" />
<rect x="79.0223" y="38.1000" width="14.1111" height="12.7000" />
<rect x="95.9557" y="38.1000" width="2.8222" height="12.7000" />
<rect x="104.4223" y="38.1000" width="5.6445" height="12.7000" />
<rect x="115.7112" y="38.1000" width="8.4667" height="12.7000" />
<rect x="129.8224" y="38.1000" width="5.6445" height="12.7000" />
<rect x="143.9335" y="38.1000" width="2.8222" height="12.7000" />
<rect x="149.5779" y="38.1000" width="2.8222" height="12.7000" />
<rect x="163.6891" y="38.1000" width="5.6445" height="12.7000" />
<rect x="177.8002" y="38.1000" width="5.6445" height="12.7000" />
<rect x="191.9113" y="38.1000" width="5.6445" height="12.7000" />
<rect x="200.3780" y="38.1000" width="2.8222" height="12.7000" />
<rect x="208.8447" y="38.1000" width="5.6445" height="12.7000" />
<rect x="225.7780" y="38.1000" width="8.4667" height="12.7000" />
<rect x="239.8891" y="38.1000" width="5.6445" height="12.7000" />
<rect x="248.3558" y="38.1000" width="2.8222" height="12.7000" />
<rect x="254.0003" y="38.1000" width="11.2889" height="12.7000" />
<rect x="270.9336" y="38.1000" width="14.1111" height="12.7000" />
<rect x="287.8670" y="38.1000" width="19.7556" height="12.7000" />
<rect x="310.4448" y="38.1000" width="2.8222" height="12.7000" />
<rect x="321.7337" y="38.1000" width="2.8222" height="12.7000" />
<rect x="327.3781" y="38.1000" width="2.8222" height="12.7000" />
<rect x="335.8448" y="38.1000" width="2.8222" height="12.7000" />
</g>
<g fill="rgb(0%,0%,0%)">
<rect x="0.0000" y="50.8000" width="22.5778" height="12.7000" />
<rect x="25.4000" y="50.8000" width="2.8222" height="12.7000" />
<rect x="31.0445" y="50.8000" width="2.8222" height="12.7000" />
<rect x="36.6889" y="50.8000" width="2.8222" height="12.7000" />
<rect x="47.9778" y="50.8000" width="5.6444" height="12.7000" />
<rect x="56.4445" y="50.8000" width="2.8222" height="12.7000" />
<rect x="62.0890" y="50.8000" width="8.4667" height="12.7000" />
<rect x="81.8445" y="50.8000" width="2.8222" height="12.7000" />
<rect x="95.9557" y="50.8000" width="2.8222" height="12.7000" />
<rect x="101.6001" y="50.8000" width="16.9334" height="12.7000" />
<rect x="121.3557" y="50.8000" width="2.8222" height="12.7000" />
<rect x="127.0001" y="50.8000" width="5.6444" height="12.7000" />
<rect x="143.9335" y="50.8000" width="5.6445" height="12.7000" />
<rect x="160.8668" y="50.8000" width="2.8222" height="12.7000" />
<rect x="172.1557" y="50.8000" width="8.4667" height="12.7000" />
<rect x="183.4446" y="50.8000" width="2.8222" height="12.7000" />
<rect x="191.9113" y="50.8000" width="5.6445" height="12.7000" />
<rect x="208.8447" y="50.8000" width="2.8222" height="12.7000" />
<rect x="214.4891" y="50.8000" width="8.4667" height="12.7000" />
<rect x="228.6002" y="50.8000" width="2.8222" height="12.7000" />
<rect x="239.8891" y="50.8000" width="11.2889" height="12.7000" />
<rect x="254.0003" y="50.8000" width="2.8222" height="12.7000" />
<rect x="259.6447" y="50.8000" width="8.4667" height="12.7000" />
<rect x="273.7558" y="50.8000" width="8.4667" height="12.7000" />
<rect x="287.8670" y="50.8000" width="19.7556" height="12.7000" />
<rect x="310.4448" y="50.8000" width="2.8222" height="12.7000" />
<rect x="321.7337" y="50.8000" width="2.8222" height="12.7000" />
<rect x="327.3781" y="50.8000" width="2.8222" height="12.7000" />
<rect x="335.8448" y="50.8000" width="2.8222" height="12.7000" />
</g>
<g fill="rgb(0%,0%,0%)">
<rect x="0.0000" y="63.5000" width="22.5778" height="12.7000" />
<rect x="25.4000" y="63.5000" width="2.8222" height="12.7000" />
<rect x="31.0445" y="63.5000" width="2.8222" height="12.7000" />
<rect x="36.6889" y="63.5000" width="2.8222" height="12.7000" />
<rect x="47.9778" y="63.5000" width="14.1111" height="12.7000" />
<rect x="64.9112" y="63.5000" width="2.8222" height="12.7000" />
<rect x="70.5556" y="63.5000" width="11.2889" height="12.7000" />
<rect x="84.6668" y="63.5000" width="5.6445" height="12.7000" />
<rect x="95.9557" y="63.5000" width="5.6445" height="12.7000" />
<rect x="110.0668" y="63.5000" width="8.4667" height="12.7000" />
<rect x="124.1779" y="63.5000" width="2.8222" height="12.7000" />
<rect x="129.8224" y="63.5000" width="8.4667" height="12.7000" />
<rect x="143.9335" y="63.5000" width="2.8222" height="12.7000" />
<rect x="155.2224" y="63.5000" width="5.6445" height="12.7000" />
<rect x="174.9780" y="63.5000" width="2.8222" height="12.7000" />
<rect x="180.6224" y="63.5000" width="8.4667" height="12.7000" />
<rect x="191.9113" y="63.5000" width="5.6445" height="12.7000" />
<rect x="200.3780" y="63.5000" width="5.6445" height="12.7000" />
<rect x="211.6669" y="63.5000" width="2.8222" height="12.7000" />
<rect x="222.9558" y="63.5000" width="11.2889" height="12.7000" />
<rect x="239.8891" y="63.5000" width="11.2889" height="12.7000" />
<rect x="254.0003" y="63.5000" width="2.8222" height="12.7000" />
<rect x="259.6447" y="63.5000" width="11.2889" height="12.7000" />
<rect x="282.2225" y="63.5000" width="2.8222" height="12.7000" />
<rect x="287.8670" y="63.5000" width="19.7556" height="12.7000" />
<rect x="310.4448" y="63.5000" width="2.8222" height="12.7000" />
<rect x="321.7337" y="63.5000" width="2.8222" height="12.7000" />
<rect x="327.3781" y="63.5000" width="2.8222" height="12.7000" />
<rect x="335.8448" y="63.5000" width="2.8222" height="12.7000" />
</g>
<g fill="rgb(0%,0%,0%)">
<rect x="0.0000" y="76.2000" width="22.5778" height="12.7000" />
<rect x="25.4000" y="76.2000" width="2.8222" height="12.7000" />
<rect x="31.0445" y="76.2000" width="2.8222" height="12.7000" />
<rect x="36.6889" y="76.2000" width="2.8222" height="12.7000" />
<rect x="47.9778" y="76.2000" width="8.4667" height="12.7000" />
<rect x="59.2667" y="76.2000" width="2.8222" height="12.7000" />
<rect x="67.7334" y="76.2000" width="8.4667" height="12.7000" />
<rect x="79.0223" y="76.2000" width="14.1111" height="12.7000" />
<rect x="95.9557" y="76.2000" width="11.2889" height="12.7000" />
<rect x="112.8890" y="76.2000" width="11.2889" height="12.7000" />
<rect x="127.0001" y="76.2000" width="2.8222" height="12.7000" />
<rect x="132.6446" y="76.2000" width="2.8222" height="12.7000" />
<rect x="143.9335" y="76.2000" width="5.6445" height="12.7000" />
<rect x="152.4002" y="76.2000" width="8.4667" height="12.7000" />
<rect x="166.5113" y="76.2000" width="5.6445" height="12.7000" />
<rect x="177.8002" y="76.2000" width="2.8222" height="12.7000" />
<rect x="191.9113" y="76.2000" width="2.8222" height="12.7000" />
<rect x="203.2002" y="76.2000" width="2.8222" height="12.7000" />
<rect x="211.6669" y="76.2000" width="5.6445" height="12.7000" />
<rect x="220.1336" y="76.2000" width="5.6445" height="12.7000" />
<rect x="239.8891" y="76.2000" width="8.4667" height="12.7000" />
<rect x="251.1780" y="76.2000" width="2.8222" height="12.7000" />
<rect x="259.6447" y="76.2000" width="8.4667" height="12.7000" />
<rect x="270.9336" y="76.2000" width="14.1111" height="12.7000" />
<rect x="287.8670" y="76.2000" width="19.7556" height="12.7000" />
<rect x="310.4448" y="76.2000" width="2.8222" height="12.7000" />
<rect x="321.7337" y="76.2000" width="2.8222" height="12.7000" />
<rect x="327.3781" y="76.2000" width="2.8222" height="12.7000" />
<rect x="335.8448" y="76.2000" width="2.8222" height="12.7000" />
</g>
</svg>
