<?xml version="1.0" standalone="no"?><!DOCTYPE svg PUBLIC "-//W3C//DTD SVG 1.1//EN" "http://www.w3.org/Graphics/SVG/1.1/DTD/svg11.dtd">
<svg x="0.0000mm" y="0.0000mm" width="163.7770mm" height="163.7770mm" viewBox="0.0000 0.0000 163.7770 163.7770" version="1.1" xmlns="http://www.w3.org/2000/svg" shape-rendering="crispEdges">
<title>TBarCode - 11.14.0.16673</title>
<desc>BarCode licensed to MEM:TEC-IT Datenverarbeitung GmbH Internal License</desc>
<g fill="rgb(0%,0%,0%)">
</g>
<g fill="rgb(100%,100%,100%)">
<rect x="0.0000" y="0.0000" width="163.7770" height="163.7770" />
</g>
<g fill="rgb(0%,0%,0%)">
</g>
<g fill="rgb(0%,0%,0%)">
<rect x="0.0000" y="0.0000" width="5.6475" height="5.6475" />
<rect x="5.6475" y="0.0000" width="5.6475" height="5.6475" />
<rect x="11.2950" y="0.0000" width="5.6475" height="5.6475" />
<rect x="16.9424" y="0.0000" width="5.6475" height="5.6475" />
<rect x="22.5899" y="0.0000" width="5.6475" height="5.6475" />
<rect x="28.2374" y="0.0000" width="5.6475" height="5.6475" />
<rect x="33.8849" y="0.0000" width="5.6475" height="5.6475" />
<rect x="45.1799" y="0.0000" width="5.6475" height="5.6475" />
<rect x="50.8273" y="0.0000" width="5.6475" height="5.6475" />
<rect x="56.4748" y="0.0000" width="5.6475" height="5.6475" />
<rect x="62.1223" y="0.0000" width="5.6475" height="5.6475" />
<rect x="73.4173" y="0.0000" width="5.6475" height="5.6475" />
<rect x="79.0648" y="0.0000" width="5.6475" height="5.6475" />
<rect x="84.7122" y="0.0000" width="5.6475" height="5.6475" />
<rect x="101.6547" y="0.0000" width="5.6475" height="5.6475" />
<rect x="107.3022" y="0.0000" width="5.6475" height="5.6475" />
<rect x="124.2446" y="0.0000" width="5.6475" height="5.6475" />
<rect x="129.8921" y="0.0000" width="5.6475" height="5.6475" />
<rect x="135.5396" y="0.0000" width="5.6475" height="5.6475" />
<rect x="141.1871" y="0.0000" width="5.6475" height="5.6475" />
<rect x="146.8346" y="0.0000" width="5.6475" height="5.6475" />
<rect x="152.4820" y="0.0000" width="5.6475" height="5.6475" />
<rect x="158.1295" y="0.0000" width="5.6475" height="5.6475" />
</g>
<g fill="rgb(0%,0%,0%)">
<rect x="0.0000" y="5.6475" width="5.6475" height="5.6475" />
<rect x="33.8849" y="5.6475" width="5.6475" height="5.6475" />
<rect x="45.1799" y="5.6475" width="5.6475" height="5.6475" />
<rect x="62.1223" y="5.6475" width="5.6475" height="5.6475" />
<rect x="84.7122" y="5.6475" width="5.6475" height="5.6475" />
<rect x="124.2446" y="5.6475" width="5.6475" height="5.6475" />
<rect x="158.1295" y="5.6475" width="5.6475" height="5.6475" />
</g>
<g fill="rgb(0%,0%,0%)">
<rect x="0.0000" y="11.2950" width="5.6475" height="5.6475" />
<rect x="11.2950" y="11.2950" width="5.6475" height="5.6475" />
<rect x="16.9424" y="11.2950" width="5.6475" height="5.6475" />
<rect x="22.5899" y="11.2950" width="5.6475" height="5.6475" />
<rect x="33.8849" y="11.2950" width="5.6475" height="5.6475" />
<rect x="50.8273" y="11.2950" width="5.6475" height="5.6475" />
<rect x="73.4173" y="11.2950" width="5.6475" height="5.6475" />
<rect x="96.0072" y="11.2950" width="5.6475" height="5.6475" />
<rect x="107.3022" y="11.2950" width="5.6475" height="5.6475" />
<rect x="112.9497" y="11.2950" width="5.6475" height="5.6475" />
<rect x="124.2446" y="11.2950" width="5.6475" height="5.6475" />
<rect x="135.5396" y="11.2950" width="5.6475" height="5.6475" />
<rect x="141.1871" y="11.2950" width="5.6475" height="5.6475" />
<rect x="146.8346" y="11.2950" width="5.6475" height="5.6475" />
<rect x="158.1295" y="11.2950" width="5.6475" height="5.6475" />
</g>
<g fill="rgb(0%,0%,0%)">
<rect x="0.0000" y="16.9424" width="5.6475" height="5.6475" />
<rect x="11.2950" y="16.9424" width="5.6475" height="5.6475" />
<rect x="16.9424" y="16.9424" width="5.6475" height="5.6475" />
<rect x="22.5899" y="16.9424" width="5.6475" height="5.6475" />
<rect x="33.8849" y="16.9424" width="5.6475" height="5.6475" />
<rect x="62.1223" y="16.9424" width="5.6475" height="5.6475" />
<rect x="67.7698" y="16.9424" width="5.6475" height="5.6475" />
<rect x="84.7122" y="16.9424" width="5.6475" height="5.6475" />
<rect x="101.6547" y="16.9424" width="5.6475" height="5.6475" />
<rect x="124.2446" y="16.9424" width="5.6475" height="5.6475" />
<rect x="135.5396" y="16.9424" width="5.6475" height="5.6475" />
<rect x="141.1871" y="16.9424" width="5.6475" height="5.6475" />
<rect x="146.8346" y="16.9424" width="5.6475" height="5.6475" />
<rect x="158.1295" y="16.9424" width="5.6475" height="5.6475" />
</g>
<g fill="rgb(0%,0%,0%)">
<rect x="0.0000" y="22.5899" width="5.6475" height="5.6475" />
<rect x="11.2950" y="22.5899" width="5.6475" height="5.6475" />
<rect x="16.9424" y="22.5899" width="5.6475" height="5.6475" />
<rect x="22.5899" y="22.5899" width="5.6475" height="5.6475" />
<rect x="33.8849" y="22.5899" width="5.6475" height="5.6475" />
<rect x="45.1799" y="22.5899" width="5.6475" height="5.6475" />
<rect x="62.1223" y="22.5899" width="5.6475" height="5.6475" />
<rect x="67.7698" y="22.5899" width="5.6475" height="5.6475" />
<rect x="84.7122" y="22.5899" width="5.6475" height="5.6475" />
<rect x="90.3597" y="22.5899" width="5.6475" height="5.6475" />
<rect x="96.0072" y="22.5899" width="5.6475" height="5.6475" />
<rect x="112.9497" y="22.5899" width="5.6475" height="5.6475" />
<rect x="124.2446" y="22.5899" width="5.6475" height="5.6475" />
<rect x="135.5396" y="22.5899" width="5.6475" height="5.6475" />
<rect x="141.1871" y="22.5899" width="5.6475" height="5.6475" />
<rect x="146.8346" y="22.5899" width="5.6475" height="5.6475" />
<rect x="158.1295" y="22.5899" width="5.6475" height="5.6475" />
</g>
<g fill="rgb(0%,0%,0%)">
<rect x="0.0000" y="28.2374" width="5.6475" height="5.6475" />
<rect x="33.8849" y="28.2374" width="5.6475" height="5.6475" />
<rect x="45.1799" y="28.2374" width="5.6475" height="5.6475" />
<rect x="50.8273" y="28.2374" width="5.6475" height="5.6475" />
<rect x="56.4748" y="28.2374" width="5.6475" height="5.6475" />
<rect x="67.7698" y="28.2374" width="5.6475" height="5.6475" />
<rect x="73.4173" y="28.2374" width="5.6475" height="5.6475" />
<rect x="79.0648" y="28.2374" width="5.6475" height="5.6475" />
<rect x="101.6547" y="28.2374" width="5.6475" height="5.6475" />
<rect x="124.2446" y="28.2374" width="5.6475" height="5.6475" />
<rect x="158.1295" y="28.2374" width="5.6475" height="5.6475" />
</g>
<g fill="rgb(0%,0%,0%)">
<rect x="0.0000" y="33.8849" width="5.6475" height="5.6475" />
<rect x="5.6475" y="33.8849" width="5.6475" height="5.6475" />
<rect x="11.2950" y="33.8849" width="5.6475" height="5.6475" />
<rect x="16.9424" y="33.8849" width="5.6475" height="5.6475" />
<rect x="22.5899" y="33.8849" width="5.6475" height="5.6475" />
<rect x="28.2374" y="33.8849" width="5.6475" height="5.6475" />
<rect x="33.8849" y="33.8849" width="5.6475" height="5.6475" />
<rect x="45.1799" y="33.8849" width="5.6475" height="5.6475" />
<rect x="56.4748" y="33.8849" width="5.6475" height="5.6475" />
<rect x="67.7698" y="33.8849" width="5.6475" height="5.6475" />
<rect x="79.0648" y="33.8849" width="5.6475" height="5.6475" />
<rect x="90.3597" y="33.8849" width="5.6475" height="5.6475" />
<rect x="101.6547" y="33.8849" width="5.6475" height="5.6475" />
<rect x="112.9497" y="33.8849" width="5.6475" height="5.6475" />
<rect x="124.2446" y="33.8849" width="5.6475" height="5.6475" />
<rect x="129.8921" y="33.8849" width="5.6475" height="5.6475" />
<rect x="135.5396" y="33.8849" width="5.6475" height="5.6475" />
<rect x="141.1871" y="33.8849" width="5.6475" height="5.6475" />
<rect x="146.8346" y="33.8849" width="5.6475" height="5.6475" />
<rect x="152.4820" y="33.8849" width="5.6475" height="5.6475" />
<rect x="158.1295" y="33.8849" width="5.6475" height="5.6475" />
</g>
<g fill="rgb(0%,0%,0%)">
<rect x="45.1799" y="39.5324" width="5.6475" height="5.6475" />
<rect x="50.8273" y="39.5324" width="5.6475" height="5.6475" />
<rect x="73.4173" y="39.5324" width="5.6475" height="5.6475" />
<rect x="101.6547" y="39.5324" width="5.6475" height="5.6475" />
<rect x="112.9497" y="39.5324" width="5.6475" height="5.6475" />
</g>
<g fill="rgb(0%,0%,0%)">
<rect x="0.0000" y="45.1799" width="5.6475" height="5.6475" />
<rect x="5.6475" y="45.1799" width="5.6475" height="5.6475" />
<rect x="11.2950" y="45.1799" width="5.6475" height="5.6475" />
<rect x="28.2374" y="45.1799" width="5.6475" height="5.6475" />
<rect x="33.8849" y="45.1799" width="5.6475" height="5.6475" />
<rect x="45.1799" y="45.1799" width="5.6475" height="5.6475" />
<rect x="50.8273" y="45.1799" width="5.6475" height="5.6475" />
<rect x="62.1223" y="45.1799" width="5.6475" height="5.6475" />
<rect x="67.7698" y="45.1799" width="5.6475" height="5.6475" />
<rect x="73.4173" y="45.1799" width="5.6475" height="5.6475" />
<rect x="84.7122" y="45.1799" width="5.6475" height="5.6475" />
<rect x="90.3597" y="45.1799" width="5.6475" height="5.6475" />
<rect x="101.6547" y="45.1799" width="5.6475" height="5.6475" />
<rect x="112.9497" y="45.1799" width="5.6475" height="5.6475" />
<rect x="118.5971" y="45.1799" width="5.6475" height="5.6475" />
<rect x="124.2446" y="45.1799" width="5.6475" height="5.6475" />
<rect x="129.8921" y="45.1799" width="5.6475" height="5.6475" />
<rect x="135.5396" y="45.1799" width="5.6475" height="5.6475" />
<rect x="152.4820" y="45.1799" width="5.6475" height="5.6475" />
<rect x="158.1295" y="45.1799" width="5.6475" height="5.6475" />
</g>
<g fill="rgb(0%,0%,0%)">
<rect x="0.0000" y="50.8273" width="5.6475" height="5.6475" />
<rect x="16.9424" y="50.8273" width="5.6475" height="5.6475" />
<rect x="22.5899" y="50.8273" width="5.6475" height="5.6475" />
<rect x="28.2374" y="50.8273" width="5.6475" height="5.6475" />
<rect x="45.1799" y="50.8273" width="5.6475" height="5.6475" />
<rect x="67.7698" y="50.8273" width="5.6475" height="5.6475" />
<rect x="84.7122" y="50.8273" width="5.6475" height="5.6475" />
<rect x="101.6547" y="50.8273" width="5.6475" height="5.6475" />
<rect x="107.3022" y="50.8273" width="5.6475" height="5.6475" />
<rect x="124.2446" y="50.8273" width="5.6475" height="5.6475" />
<rect x="129.8921" y="50.8273" width="5.6475" height="5.6475" />
<rect x="141.1871" y="50.8273" width="5.6475" height="5.6475" />
<rect x="152.4820" y="50.8273" width="5.6475" height="5.6475" />
</g>
<g fill="rgb(0%,0%,0%)">
<rect x="28.2374" y="56.4748" width="5.6475" height="5.6475" />
<rect x="33.8849" y="56.4748" width="5.6475" height="5.6475" />
<rect x="39.5324" y="56.4748" width="5.6475" height="5.6475" />
<rect x="50.8273" y="56.4748" width="5.6475" height="5.6475" />
<rect x="56.4748" y="56.4748" width="5.6475" height="5.6475" />
<rect x="67.7698" y="56.4748" width="5.6475" height="5.6475" />
<rect x="73.4173" y="56.4748" width="5.6475" height="5.6475" />
<rect x="79.0648" y="56.4748" width="5.6475" height="5.6475" />
<rect x="84.7122" y="56.4748" width="5.6475" height="5.6475" />
<rect x="90.3597" y="56.4748" width="5.6475" height="5.6475" />
<rect x="107.3022" y="56.4748" width="5.6475" height="5.6475" />
<rect x="112.9497" y="56.4748" width="5.6475" height="5.6475" />
<rect x="118.5971" y="56.4748" width="5.6475" height="5.6475" />
<rect x="129.8921" y="56.4748" width="5.6475" height="5.6475" />
<rect x="135.5396" y="56.4748" width="5.6475" height="5.6475" />
<rect x="141.1871" y="56.4748" width="5.6475" height="5.6475" />
<rect x="146.8346" y="56.4748" width="5.6475" height="5.6475" />
<rect x="158.1295" y="56.4748" width="5.6475" height="5.6475" />
</g>
<g fill="rgb(0%,0%,0%)">
<rect x="0.0000" y="62.1223" width="5.6475" height="5.6475" />
<rect x="5.6475" y="62.1223" width="5.6475" height="5.6475" />
<rect x="11.2950" y="62.1223" width="5.6475" height="5.6475" />
<rect x="16.9424" y="62.1223" width="5.6475" height="5.6475" />
<rect x="28.2374" y="62.1223" width="5.6475" height="5.6475" />
<rect x="45.1799" y="62.1223" width="5.6475" height="5.6475" />
<rect x="56.4748" y="62.1223" width="5.6475" height="5.6475" />
<rect x="62.1223" y="62.1223" width="5.6475" height="5.6475" />
<rect x="67.7698" y="62.1223" width="5.6475" height="5.6475" />
<rect x="79.0648" y="62.1223" width="5.6475" height="5.6475" />
<rect x="84.7122" y="62.1223" width="5.6475" height="5.6475" />
<rect x="101.6547" y="62.1223" width="5.6475" height="5.6475" />
<rect x="107.3022" y="62.1223" width="5.6475" height="5.6475" />
<rect x="112.9497" y="62.1223" width="5.6475" height="5.6475" />
<rect x="118.5971" y="62.1223" width="5.6475" height="5.6475" />
<rect x="124.2446" y="62.1223" width="5.6475" height="5.6475" />
<rect x="129.8921" y="62.1223" width="5.6475" height="5.6475" />
<rect x="141.1871" y="62.1223" width="5.6475" height="5.6475" />
<rect x="152.4820" y="62.1223" width="5.6475" height="5.6475" />
<rect x="158.1295" y="62.1223" width="5.6475" height="5.6475" />
</g>
<g fill="rgb(0%,0%,0%)">
<rect x="0.0000" y="67.7698" width="5.6475" height="5.6475" />
<rect x="16.9424" y="67.7698" width="5.6475" height="5.6475" />
<rect x="33.8849" y="67.7698" width="5.6475" height="5.6475" />
<rect x="50.8273" y="67.7698" width="5.6475" height="5.6475" />
<rect x="56.4748" y="67.7698" width="5.6475" height="5.6475" />
<rect x="73.4173" y="67.7698" width="5.6475" height="5.6475" />
<rect x="79.0648" y="67.7698" width="5.6475" height="5.6475" />
<rect x="90.3597" y="67.7698" width="5.6475" height="5.6475" />
<rect x="101.6547" y="67.7698" width="5.6475" height="5.6475" />
<rect x="112.9497" y="67.7698" width="5.6475" height="5.6475" />
<rect x="124.2446" y="67.7698" width="5.6475" height="5.6475" />
<rect x="146.8346" y="67.7698" width="5.6475" height="5.6475" />
<rect x="152.4820" y="67.7698" width="5.6475" height="5.6475" />
<rect x="158.1295" y="67.7698" width="5.6475" height="5.6475" />
</g>
<g fill="rgb(0%,0%,0%)">
<rect x="16.9424" y="73.4173" width="5.6475" height="5.6475" />
<rect x="28.2374" y="73.4173" width="5.6475" height="5.6475" />
<rect x="39.5324" y="73.4173" width="5.6475" height="5.6475" />
<rect x="56.4748" y="73.4173" width="5.6475" height="5.6475" />
<rect x="73.4173" y="73.4173" width="5.6475" height="5.6475" />
<rect x="79.0648" y="73.4173" width="5.6475" height="5.6475" />
<rect x="90.3597" y="73.4173" width="5.6475" height="5.6475" />
<rect x="96.0072" y="73.4173" width="5.6475" height="5.6475" />
<rect x="107.3022" y="73.4173" width="5.6475" height="5.6475" />
<rect x="112.9497" y="73.4173" width="5.6475" height="5.6475" />
<rect x="124.2446" y="73.4173" width="5.6475" height="5.6475" />
<rect x="129.8921" y="73.4173" width="5.6475" height="5.6475" />
<rect x="141.1871" y="73.4173" width="5.6475" height="5.6475" />
<rect x="152.4820" y="73.4173" width="5.6475" height="5.6475" />
</g>
<g fill="rgb(0%,0%,0%)">
<rect x="0.0000" y="79.0648" width="5.6475" height="5.6475" />
<rect x="33.8849" y="79.0648" width="5.6475" height="5.6475" />
<rect x="45.1799" y="79.0648" width="5.6475" height="5.6475" />
<rect x="62.1223" y="79.0648" width="5.6475" height="5.6475" />
<rect x="90.3597" y="79.0648" width="5.6475" height="5.6475" />
<rect x="96.0072" y="79.0648" width="5.6475" height="5.6475" />
<rect x="107.3022" y="79.0648" width="5.6475" height="5.6475" />
<rect x="135.5396" y="79.0648" width="5.6475" height="5.6475" />
<rect x="146.8346" y="79.0648" width="5.6475" height="5.6475" />
<rect x="158.1295" y="79.0648" width="5.6475" height="5.6475" />
</g>
<g fill="rgb(0%,0%,0%)">
<rect x="0.0000" y="84.7122" width="5.6475" height="5.6475" />
<rect x="22.5899" y="84.7122" width="5.6475" height="5.6475" />
<rect x="39.5324" y="84.7122" width="5.6475" height="5.6475" />
<rect x="45.1799" y="84.7122" width="5.6475" height="5.6475" />
<rect x="50.8273" y="84.7122" width="5.6475" height="5.6475" />
<rect x="73.4173" y="84.7122" width="5.6475" height="5.6475" />
<rect x="101.6547" y="84.7122" width="5.6475" height="5.6475" />
<rect x="118.5971" y="84.7122" width="5.6475" height="5.6475" />
<rect x="124.2446" y="84.7122" width="5.6475" height="5.6475" />
<rect x="129.8921" y="84.7122" width="5.6475" height="5.6475" />
<rect x="152.4820" y="84.7122" width="5.6475" height="5.6475" />
</g>
<g fill="rgb(0%,0%,0%)">
<rect x="5.6475" y="90.3597" width="5.6475" height="5.6475" />
<rect x="33.8849" y="90.3597" width="5.6475" height="5.6475" />
<rect x="45.1799" y="90.3597" width="5.6475" height="5.6475" />
<rect x="50.8273" y="90.3597" width="5.6475" height="5.6475" />
<rect x="56.4748" y="90.3597" width="5.6475" height="5.6475" />
<rect x="62.1223" y="90.3597" width="5.6475" height="5.6475" />
<rect x="67.7698" y="90.3597" width="5.6475" height="5.6475" />
<rect x="73.4173" y="90.3597" width="5.6475" height="5.6475" />
<rect x="84.7122" y="90.3597" width="5.6475" height="5.6475" />
<rect x="101.6547" y="90.3597" width="5.6475" height="5.6475" />
<rect x="107.3022" y="90.3597" width="5.6475" height="5.6475" />
<rect x="112.9497" y="90.3597" width="5.6475" height="5.6475" />
<rect x="124.2446" y="90.3597" width="5.6475" height="5.6475" />
<rect x="129.8921" y="90.3597" width="5.6475" height="5.6475" />
<rect x="141.1871" y="90.3597" width="5.6475" height="5.6475" />
</g>
<g fill="rgb(0%,0%,0%)">
<rect x="5.6475" y="96.0072" width="5.6475" height="5.6475" />
<rect x="11.2950" y="96.0072" width="5.6475" height="5.6475" />
<rect x="39.5324" y="96.0072" width="5.6475" height="5.6475" />
<rect x="50.8273" y="96.0072" width="5.6475" height="5.6475" />
<rect x="67.7698" y="96.0072" width="5.6475" height="5.6475" />
<rect x="101.6547" y="96.0072" width="5.6475" height="5.6475" />
<rect x="107.3022" y="96.0072" width="5.6475" height="5.6475" />
<rect x="112.9497" y="96.0072" width="5.6475" height="5.6475" />
<rect x="118.5971" y="96.0072" width="5.6475" height="5.6475" />
<rect x="124.2446" y="96.0072" width="5.6475" height="5.6475" />
<rect x="129.8921" y="96.0072" width="5.6475" height="5.6475" />
<rect x="141.1871" y="96.0072" width="5.6475" height="5.6475" />
<rect x="146.8346" y="96.0072" width="5.6475" height="5.6475" />
</g>
<g fill="rgb(0%,0%,0%)">
<rect x="0.0000" y="101.6547" width="5.6475" height="5.6475" />
<rect x="5.6475" y="101.6547" width="5.6475" height="5.6475" />
<rect x="16.9424" y="101.6547" width="5.6475" height="5.6475" />
<rect x="28.2374" y="101.6547" width="5.6475" height="5.6475" />
<rect x="33.8849" y="101.6547" width="5.6475" height="5.6475" />
<rect x="39.5324" y="101.6547" width="5.6475" height="5.6475" />
<rect x="45.1799" y="101.6547" width="5.6475" height="5.6475" />
<rect x="67.7698" y="101.6547" width="5.6475" height="5.6475" />
<rect x="73.4173" y="101.6547" width="5.6475" height="5.6475" />
<rect x="79.0648" y="101.6547" width="5.6475" height="5.6475" />
<rect x="84.7122" y="101.6547" width="5.6475" height="5.6475" />
<rect x="90.3597" y="101.6547" width="5.6475" height="5.6475" />
<rect x="107.3022" y="101.6547" width="5.6475" height="5.6475" />
<rect x="112.9497" y="101.6547" width="5.6475" height="5.6475" />
<rect x="124.2446" y="101.6547" width="5.6475" height="5.6475" />
<rect x="129.8921" y="101.6547" width="5.6475" height="5.6475" />
<rect x="141.1871" y="101.6547" width="5.6475" height="5.6475" />
<rect x="146.8346" y="101.6547" width="5.6475" height="5.6475" />
<rect x="158.1295" y="101.6547" width="5.6475" height="5.6475" />
</g>
<g fill="rgb(0%,0%,0%)">
<rect x="11.2950" y="107.3022" width="5.6475" height="5.6475" />
<rect x="22.5899" y="107.3022" width="5.6475" height="5.6475" />
<rect x="39.5324" y="107.3022" width="5.6475" height="5.6475" />
<rect x="56.4748" y="107.3022" width="5.6475" height="5.6475" />
<rect x="62.1223" y="107.3022" width="5.6475" height="5.6475" />
<rect x="67.7698" y="107.3022" width="5.6475" height="5.6475" />
<rect x="79.0648" y="107.3022" width="5.6475" height="5.6475" />
<rect x="101.6547" y="107.3022" width="5.6475" height="5.6475" />
<rect x="107.3022" y="107.3022" width="5.6475" height="5.6475" />
<rect x="112.9497" y="107.3022" width="5.6475" height="5.6475" />
<rect x="124.2446" y="107.3022" width="5.6475" height="5.6475" />
<rect x="129.8921" y="107.3022" width="5.6475" height="5.6475" />
<rect x="158.1295" y="107.3022" width="5.6475" height="5.6475" />
</g>
<g fill="rgb(0%,0%,0%)">
<rect x="0.0000" y="112.9497" width="5.6475" height="5.6475" />
<rect x="5.6475" y="112.9497" width="5.6475" height="5.6475" />
<rect x="16.9424" y="112.9497" width="5.6475" height="5.6475" />
<rect x="22.5899" y="112.9497" width="5.6475" height="5.6475" />
<rect x="33.8849" y="112.9497" width="5.6475" height="5.6475" />
<rect x="39.5324" y="112.9497" width="5.6475" height="5.6475" />
<rect x="50.8273" y="112.9497" width="5.6475" height="5.6475" />
<rect x="73.4173" y="112.9497" width="5.6475" height="5.6475" />
<rect x="79.0648" y="112.9497" width="5.6475" height="5.6475" />
<rect x="84.7122" y="112.9497" width="5.6475" height="5.6475" />
<rect x="101.6547" y="112.9497" width="5.6475" height="5.6475" />
<rect x="107.3022" y="112.9497" width="5.6475" height="5.6475" />
<rect x="112.9497" y="112.9497" width="5.6475" height="5.6475" />
<rect x="118.5971" y="112.9497" width="5.6475" height="5.6475" />
<rect x="124.2446" y="112.9497" width="5.6475" height="5.6475" />
<rect x="129.8921" y="112.9497" width="5.6475" height="5.6475" />
<rect x="135.5396" y="112.9497" width="5.6475" height="5.6475" />
<rect x="141.1871" y="112.9497" width="5.6475" height="5.6475" />
<rect x="152.4820" y="112.9497" width="5.6475" height="5.6475" />
<rect x="158.1295" y="112.9497" width="5.6475" height="5.6475" />
</g>
<g fill="rgb(0%,0%,0%)">
<rect x="45.1799" y="118.5971" width="5.6475" height="5.6475" />
<rect x="56.4748" y="118.5971" width="5.6475" height="5.6475" />
<rect x="73.4173" y="118.5971" width="5.6475" height="5.6475" />
<rect x="79.0648" y="118.5971" width="5.6475" height="5.6475" />
<rect x="101.6547" y="118.5971" width="5.6475" height="5.6475" />
<rect x="107.3022" y="118.5971" width="5.6475" height="5.6475" />
<rect x="112.9497" y="118.5971" width="5.6475" height="5.6475" />
<rect x="135.5396" y="118.5971" width="5.6475" height="5.6475" />
</g>
<g fill="rgb(0%,0%,0%)">
<rect x="0.0000" y="124.2446" width="5.6475" height="5.6475" />
<rect x="5.6475" y="124.2446" width="5.6475" height="5.6475" />
<rect x="11.2950" y="124.2446" width="5.6475" height="5.6475" />
<rect x="16.9424" y="124.2446" width="5.6475" height="5.6475" />
<rect x="22.5899" y="124.2446" width="5.6475" height="5.6475" />
<rect x="28.2374" y="124.2446" width="5.6475" height="5.6475" />
<rect x="33.8849" y="124.2446" width="5.6475" height="5.6475" />
<rect x="62.1223" y="124.2446" width="5.6475" height="5.6475" />
<rect x="84.7122" y="124.2446" width="5.6475" height="5.6475" />
<rect x="90.3597" y="124.2446" width="5.6475" height="5.6475" />
<rect x="101.6547" y="124.2446" width="5.6475" height="5.6475" />
<rect x="112.9497" y="124.2446" width="5.6475" height="5.6475" />
<rect x="124.2446" y="124.2446" width="5.6475" height="5.6475" />
<rect x="135.5396" y="124.2446" width="5.6475" height="5.6475" />
<rect x="141.1871" y="124.2446" width="5.6475" height="5.6475" />
<rect x="146.8346" y="124.2446" width="5.6475" height="5.6475" />
<rect x="158.1295" y="124.2446" width="5.6475" height="5.6475" />
</g>
<g fill="rgb(0%,0%,0%)">
<rect x="0.0000" y="129.8921" width="5.6475" height="5.6475" />
<rect x="33.8849" y="129.8921" width="5.6475" height="5.6475" />
<rect x="45.1799" y="129.8921" width="5.6475" height="5.6475" />
<rect x="56.4748" y="129.8921" width="5.6475" height="5.6475" />
<rect x="73.4173" y="129.8921" width="5.6475" height="5.6475" />
<rect x="101.6547" y="129.8921" width="5.6475" height="5.6475" />
<rect x="107.3022" y="129.8921" width="5.6475" height="5.6475" />
<rect x="112.9497" y="129.8921" width="5.6475" height="5.6475" />
<rect x="135.5396" y="129.8921" width="5.6475" height="5.6475" />
<rect x="141.1871" y="129.8921" width="5.6475" height="5.6475" />
<rect x="152.4820" y="129.8921" width="5.6475" height="5.6475" />
<rect x="158.1295" y="129.8921" width="5.6475" height="5.6475" />
</g>
<g fill="rgb(0%,0%,0%)">
<rect x="0.0000" y="135.5396" width="5.6475" height="5.6475" />
<rect x="11.2950" y="135.5396" width="5.6475" height="5.6475" />
<rect x="16.9424" y="135.5396" width="5.6475" height="5.6475" />
<rect x="22.5899" y="135.5396" width="5.6475" height="5.6475" />
<rect x="33.8849" y="135.5396" width="5.6475" height="5.6475" />
<rect x="56.4748" y="135.5396" width="5.6475" height="5.6475" />
<rect x="62.1223" y="135.5396" width="5.6475" height="5.6475" />
<rect x="67.7698" y="135.5396" width="5.6475" height="5.6475" />
<rect x="73.4173" y="135.5396" width="5.6475" height="5.6475" />
<rect x="84.7122" y="135.5396" width="5.6475" height="5.6475" />
<rect x="90.3597" y="135.5396" width="5.6475" height="5.6475" />
<rect x="96.0072" y="135.5396" width="5.6475" height="5.6475" />
<rect x="107.3022" y="135.5396" width="5.6475" height="5.6475" />
<rect x="112.9497" y="135.5396" width="5.6475" height="5.6475" />
<rect x="118.5971" y="135.5396" width="5.6475" height="5.6475" />
<rect x="124.2446" y="135.5396" width="5.6475" height="5.6475" />
<rect x="129.8921" y="135.5396" width="5.6475" height="5.6475" />
<rect x="135.5396" y="135.5396" width="5.6475" height="5.6475" />
<rect x="146.8346" y="135.5396" width="5.6475" height="5.6475" />
</g>
<g fill="rgb(0%,0%,0%)">
<rect x="0.0000" y="141.1871" width="5.6475" height="5.6475" />
<rect x="11.2950" y="141.1871" width="5.6475" height="5.6475" />
<rect x="16.9424" y="141.1871" width="5.6475" height="5.6475" />
<rect x="22.5899" y="141.1871" width="5.6475" height="5.6475" />
<rect x="33.8849" y="141.1871" width="5.6475" height="5.6475" />
<rect x="50.8273" y="141.1871" width="5.6475" height="5.6475" />
<rect x="67.7698" y="141.1871" width="5.6475" height="5.6475" />
<rect x="84.7122" y="141.1871" width="5.6475" height="5.6475" />
<rect x="107.3022" y="141.1871" width="5.6475" height="5.6475" />
<rect x="129.8921" y="141.1871" width="5.6475" height="5.6475" />
<rect x="135.5396" y="141.1871" width="5.6475" height="5.6475" />
<rect x="141.1871" y="141.1871" width="5.6475" height="5.6475" />
<rect x="152.4820" y="141.1871" width="5.6475" height="5.6475" />
</g>
<g fill="rgb(0%,0%,0%)">
<rect x="0.0000" y="146.8346" width="5.6475" height="5.6475" />
<rect x="11.2950" y="146.8346" width="5.6475" height="5.6475" />
<rect x="16.9424" y="146.8346" width="5.6475" height="5.6475" />
<rect x="22.5899" y="146.8346" width="5.6475" height="5.6475" />
<rect x="33.8849" y="146.8346" width="5.6475" height="5.6475" />
<rect x="45.1799" y="146.8346" width="5.6475" height="5.6475" />
<rect x="56.4748" y="146.8346" width="5.6475" height="5.6475" />
<rect x="67.7698" y="146.8346" width="5.6475" height="5.6475" />
<rect x="73.4173" y="146.8346" width="5.6475" height="5.6475" />
<rect x="79.0648" y="146.8346" width="5.6475" height="5.6475" />
<rect x="84.7122" y="146.8346" width="5.6475" height="5.6475" />
<rect x="90.3597" y="146.8346" width="5.6475" height="5.6475" />
<rect x="101.6547" y="146.8346" width="5.6475" height="5.6475" />
<rect x="107.3022" y="146.8346" width="5.6475" height="5.6475" />
<rect x="118.5971" y="146.8346" width="5.6475" height="5.6475" />
<rect x="135.5396" y="146.8346" width="5.6475" height="5.6475" />
<rect x="141.1871" y="146.8346" width="5.6475" height="5.6475" />
<rect x="146.8346" y="146.8346" width="5.6475" height="5.6475" />
<rect x="152.4820" y="146.8346" width="5.6475" height="5.6475" />
<rect x="158.1295" y="146.8346" width="5.6475" height="5.6475" />
</g>
<g fill="rgb(0%,0%,0%)">
<rect x="0.0000" y="152.4820" width="5.6475" height="5.6475" />
<rect x="33.8849" y="152.4820" width="5.6475" height="5.6475" />
<rect x="45.1799" y="152.4820" width="5.6475" height="5.6475" />
<rect x="50.8273" y="152.4820" width="5.6475" height="5.6475" />
<rect x="62.1223" y="152.4820" width="5.6475" height="5.6475" />
<rect x="67.7698" y="152.4820" width="5.6475" height="5.6475" />
<rect x="79.0648" y="152.4820" width="5.6475" height="5.6475" />
<rect x="90.3597" y="152.4820" width="5.6475" height="5.6475" />
<rect x="129.8921" y="152.4820" width="5.6475" height="5.6475" />
<rect x="135.5396" y="152.4820" width="5.6475" height="5.6475" />
<rect x="141.1871" y="152.4820" width="5.6475" height="5.6475" />
</g>
<g fill="rgb(0%,0%,0%)">
<rect x="0.0000" y="158.1295" width="5.6475" height="5.6475" />
<rect x="5.6475" y="158.1295" width="5.6475" height="5.6475" />
<rect x="11.2950" y="158.1295" width="5.6475" height="5.6475" />
<rect x="16.9424" y="158.1295" width="5.6475" height="5.6475" />
<rect x="22.5899" y="158.1295" width="5.6475" height="5.6475" />
<rect x="28.2374" y="158.1295" width="5.6475" height="5.6475" />
<rect x="33.8849" y="158.1295" width="5.6475" height="5.6475" />
<rect x="45.1799" y="158.1295" width="5.6475" height="5.6475" />
<rect x="56.4748" y="158.1295" width="5.6475" height="5.6475" />
<rect x="73.4173" y="158.1295" width="5.6475" height="5.6475" />
<rect x="79.0648" y="158.1295" width="5.6475" height="5.6475" />
<rect x="90.3597" y="158.1295" width="5.6475" height="5.6475" />
<rect x="101.6547" y="158.1295" width="5.6475" height="5.6475" />
<rect x="112.9497" y="158.1295" width="5.6475" height="5.6475" />
<rect x="118.5971" y="158.1295" width="5.6475" height="5.6475" />
<rect x="124.2446" y="158.1295" width="5.6475" height="5.6475" />
<rect x="129.8921" y="158.1295" width="5.6475" height="5.6475" />
<rect x="135.5396" y="158.1295" width="5.6475" height="5.6475" />
<rect x="158.1295" y="158.1295" width="5.6475" height="5.6475" />
</g>
</svg>
