<?xml version="1.0" standalone="no"?><!DOCTYPE svg PUBLIC "-//W3C//DTD SVG 1.1//EN" "http://www.w3.org/Graphics/SVG/1.1/DTD/svg11.dtd">
<svg x="0.0000mm" y="0.0000mm" width="319.0870mm" height="141.2880mm" viewBox="0.0000 0.0000 319.0870 141.2880" version="1.1" xmlns="http://www.w3.org/2000/svg" shape-rendering="crispEdges">
<title>TBarCode - 11.14.0.16673</title>
<desc>BarCode licensed to MEM:TEC-IT Datenverarbeitung GmbH Internal License</desc>
<g fill="rgb(0%,0%,0%)">
</g>
<g fill="rgb(100%,100%,100%)">
<rect x="0.0000" y="0.0000" width="319.0870" height="141.2880" />
</g>
<g fill="rgb(0%,0%,0%)">
</g>
<g fill="rgb(0%,0%,0%)">
<rect x="25.4140" y="0.0000" width="2.8238" height="123.3284" />
<rect x="31.0616" y="0.0000" width="2.8238" height="123.3284" />
<rect x="36.4919" y="0.0000" width="8.6886" height="123.3284" />
<rect x="47.7870" y="0.0000" width="5.8648" height="123.3284" />
<rect x="59.5166" y="0.0000" width="2.6066" height="108.3621" />
<rect x="67.9879" y="0.0000" width="5.4303" height="108.3621" />
<rect x="76.2420" y="0.0000" width="5.6476" height="108.3621" />
<rect x="90.3609" y="0.0000" width="2.8238" height="108.3621" />
<rect x="99.0495" y="0.0000" width="2.6066" height="108.3621" />
<rect x="107.5208" y="0.0000" width="5.4303" height="108.3621" />
<rect x="115.5577" y="0.0000" width="8.6886" height="108.3621" />
<rect x="126.8528" y="0.0000" width="5.8648" height="108.3621" />
<rect x="138.5824" y="0.0000" width="2.6066" height="108.3621" />
<rect x="147.0537" y="0.0000" width="5.4303" height="108.3621" />
<rect x="155.3078" y="0.0000" width="2.8238" height="123.3284" />
<rect x="160.9554" y="0.0000" width="2.8238" height="123.3284" />
<rect x="166.6029" y="0.0000" width="2.6066" height="108.3621" />
<rect x="177.8981" y="0.0000" width="2.6066" height="108.3621" />
<rect x="186.3694" y="0.0000" width="2.8238" height="108.3621" />
<rect x="200.4883" y="0.0000" width="2.8238" height="108.3621" />
<rect x="206.1358" y="0.0000" width="8.4713" height="108.3621" />
<rect x="220.2547" y="0.0000" width="2.8238" height="108.3621" />
<rect x="225.9023" y="0.0000" width="2.6066" height="108.3621" />
<rect x="237.1974" y="0.0000" width="2.6066" height="108.3621" />
<rect x="245.6688" y="0.0000" width="8.4713" height="108.3621" />
<rect x="259.7876" y="0.0000" width="2.8238" height="108.3621" />
<rect x="265.4352" y="0.0000" width="2.8238" height="123.3284" />
<rect x="271.0828" y="0.0000" width="2.8238" height="123.3284" />
<rect x="285.2017" y="0.0000" width="2.8238" height="123.3284" />
<rect x="290.8492" y="0.0000" width="2.8238" height="123.3284" />
</g>
<g fill="rgb(0%,0%,0%)">
<text x="12.7070" y="135.1144" transform="rotate(360 12.7070,135.1144)" text-anchor="middle" font-family="Arial" font-size="29.6333" >7</text>
<text x="104.4798" y="135.1144" transform="rotate(360 104.4798,135.1144)" text-anchor="middle" font-family="Arial" font-size="29.6333" >25272</text>
<text x="214.6072" y="135.1144" transform="rotate(360 214.6072,135.1144)" text-anchor="middle" font-family="Arial" font-size="29.6333" >73070</text>
<text x="319.0870" y="135.1144" transform="rotate(360 319.0870,135.1144)" text-anchor="end" font-family="Arial" font-size="29.6333" >6</text>
</g>
</svg>
